<?xml version="1.0" encoding="UTF-8" standalone="no"?>
<svg
   xmlns:dc="http://purl.org/dc/elements/1.1/"
   xmlns:cc="http://creativecommons.org/ns#"
   xmlns:rdf="http://www.w3.org/1999/02/22-rdf-syntax-ns#"
   xmlns:svg="http://www.w3.org/2000/svg"
   xmlns="http://www.w3.org/2000/svg"
   xmlns:sodipodi="http://sodipodi.sourceforge.net/DTD/sodipodi-0.dtd"
   xmlns:inkscape="http://www.inkscape.org/namespaces/inkscape"
   inkscape:version="1.0 (4035a4fb49, 2020-05-01)"
   sodipodi:docname="uabc (1).svg"
   version="1.1"
   width="411.77066"
   height="595.56696"
   id="svg36"
   viewBox="0 0 411.77066 595.56696">
  <sodipodi:namedview
     inkscape:current-layer="svg36"
     inkscape:window-maximized="1"
     inkscape:window-y="-8"
     inkscape:window-x="1352"
     inkscape:cy="289.59405"
     inkscape:cx="423.48162"
     inkscape:zoom="1.4847927"
     fit-margin-bottom="0"
     fit-margin-right="0"
     fit-margin-left="0"
     fit-margin-top="0"
     showgrid="false"
     id="namedview22"
     inkscape:window-height="1017"
     inkscape:window-width="1920"
     inkscape:pageshadow="2"
     inkscape:pageopacity="0"
     guidetolerance="10"
     gridtolerance="10"
     objecttolerance="10"
     borderopacity="1"
     bordercolor="#666666"
     pagecolor="#ffffff" />
  <metadata
     id="metadata42">
    <rdf:RDF>
      <cc:Work
         rdf:about="">
        <dc:format>image/svg+xml</dc:format>
        <dc:type
           rdf:resource="http://purl.org/dc/dcmitype/StillImage" />
        <dc:title></dc:title>
      </cc:Work>
    </rdf:RDF>
  </metadata>
  <defs
     id="defs40" />
  <path
     d="m 293.28536,432.3353 c -0.002,0.003 -4.4342,8.8498 -5.8113,10.8706 -2.1254,3.1207 -1.313,2.1781 -3.7913,5.0241 -4.2965,4.932 -7.5926,8.0564 -13.148,12.1907 -1.758,1.3088 -3.2652,2.3049 -5.2523,3.5481 -16.5461,10.3536 -36.4493,16.638 -59.3356,17.2015 -40.0533,0.9859 -76.0856,-20.0894 -87.9103,-48.1589 -4.0113,-9.5236 -4.54,-17.8268 -4.5321,-29.4083 l -0.0655,-295.8982 182.3287,-0.2945 0.212,306.5431 c 10e-4,8.5368 -1.1137,11.0772 -2.6943,18.3818 z M 80.894759,423.6914 c -0.8796,5.1366 3.02,17.9246 4.7143,22.615 31.863401,88.2159 174.371801,98.642 229.883201,19.7479 6.0591,-8.6108 16.1317,-29.6802 14.9522,-39.8934 1.7889,-2.3448 0.9479,-38.2482 0.949,-44.2925 l 0.0369,-290.3156 c 0,-6.1098 0.6001,-16.5402 -0.2098,-22.1743 L 80.221759,69.3775 c -0.8807,13.8129 -0.1264,30.3261 -0.1199,44.4274 -0.007,24.4417 -1.2555,306.8402 0.7929,309.8866 z m -57.3265,-282.5706 c 0.1052,2.0461 0.2378,3.3667 0.4045,3.7148 1.4749,0.694 1.2725,0.6486 2.918,1.1835 0.2602,0.4504 0.0122,0.1749 0.7809,0.6803 0.5185,0.3405 1.0642,0.6423 1.6008,0.9749 1.1882,0.7378 1.6662,1.0695 3.1155,1.3782 l 0.1026,-14.5134 c 0.7268,-10.6498 0.0766,-49.038 0.0624,-62.6516 -0.008,-8.2276 -0.5502,-58.9964 0.3166,-62.5573 l 349.899901,-0.0978 0.0723,137.253 2.9778,-1.137 c 0.1026,-0.0952 0.2506,-0.3892 0.3024,-0.2914 0.0513,0.0958 0.2294,-0.2284 0.3019,-0.2843 1.7646,-1.3507 2.4718,-1.1931 5.1435,-2.6575 L 391.57896,0 23.529459,0.0028 c -0.8184,10.0829 -0.1094,58.2211 -0.1094,72.4025 0,7.3052 -0.5639,54.6806 0.1448,68.6475"
     style="fill:#027f47;fill-rule:evenodd"
     id="path2" />
  <path
     d="m 81.802659,120.9747 h 30.331201 v 10.6595 c 0,1.8753 -0.099,3.3098 -0.2895,4.297 -0.2474,1.3883 -0.7203,2.5531 -1.4195,3.4941 -0.6921,0.9343 -1.6737,1.6909 -2.9237,2.2636 -1.2572,0.5721 -2.6342,0.8553 -4.1387,0.8553 -2.5776,0 -4.766501,-0.7633 -6.553101,-2.2898 -1.7798,-1.5332 -2.6769,-4.2967 -2.6769,-8.291 v -7.2514 h -12.3298 z m 15.9107,3.7373 v 7.3106 c 0,2.4149 0.4798,4.1323 1.4475,5.1457 0.967601,1.0133 2.323201,1.5199 4.074701,1.5199 1.2711,0 2.3589,-0.2961 3.2629,-0.895 0.9034,-0.5985 1.497,-1.3816 1.7866,-2.3622 0.1763,-0.6316 0.2681,-1.7896 0.2681,-3.4874 v -7.2316 z m -1.339,25.4418 c 5.035501,0 8.975601,1.2566 11.821701,3.7769 2.8461,2.5201 4.2727,5.7709 4.2727,9.7583 0,2.6057 -0.6709,4.9613 -2.006,7.0539 -1.3413,2.0923 -3.2058,3.6915 -5.6,4.7903 -2.3866,1.0987 -5.105701,1.645 -8.135301,1.645 -3.0788,0 -5.8334,-0.5724 -8.2553,-1.7307 -2.4296,-1.158 -4.2656,-2.7963 -5.5153,-4.9153 -1.2503,-2.1254 -1.8714,-4.4086 -1.8714,-6.8631 0,-2.6649 0.6847,-5.0404 2.0688,-7.1327 1.3775,-2.0992 3.2626,-3.6849 5.65,-4.7641 2.3797,-1.0789 4.908,-1.6185 7.5701,-1.6185 z m -0.0634,3.856 c -3.6582,0 -6.5325,0.9144 -8.637,2.7437 -2.1041,1.8358 -3.1564,4.1325 -3.1564,6.8961 0,2.8161 1.0592,5.1321 3.185,6.9484 2.1252,1.8163 5.1408,2.7308 9.046,2.7308 2.465,0 4.618801,-0.395 6.461901,-1.1712 1.8434,-0.7765 3.2694,-1.9149 4.2864,-3.4084 1.0101,-1.5006 1.5185,-3.1784 1.5185,-5.0404 0,-2.652 -0.9745,-4.9286 -2.9309,-6.8369 -1.9492,-1.908 -5.2118,-2.8621 -9.773501,-2.8621 z m -14.4875,31.9291 h 30.331201 v 12.5281 c 0,2.5203 -0.2755,4.4353 -0.8193,5.7444 -0.5437,1.3098 -1.5042,2.356 -2.8811,3.1454 -1.3842,0.7831 -2.9098,1.1715 -4.5763,1.1715 -2.154,0 -3.961801,-0.6449 -5.437701,-1.948 -1.476,-1.2963 -2.4151,-3.3029 -2.8179,-6.0138 -0.5083,0.9935 -1.0095,1.7435 -1.511,2.2567 -1.0738,1.0924 -2.4222,2.1254 -4.0326,3.1057 l -8.2553,4.9156 v -4.7049 l 6.3135,-3.7376 c 1.8149,-1.0921 3.213,-1.9936 4.1732,-2.7043 0.9679,-0.704 1.6457,-1.3359 2.0271,-1.8951 0.3885,-0.5591 0.6567,-1.1252 0.8121,-1.7044 0.0916,-0.4275 0.1412,-1.1183 0.1412,-2.0857 v -4.3364 h -13.4671 z m 16.9417,3.7372 v 8.0409 c 0,1.7044 0.1903,3.0467 0.5719,4.0075 0.3815,0.9673 0.988801,1.6975 1.821801,2.1977 0.8335,0.5 1.7375,0.7501 2.7191,0.7501 1.4335,0 2.6131,-0.4804 3.5379,-1.4544 0.9254,-0.9671 1.3844,-2.5002 1.3844,-4.5994 v -8.9424 z m -17.0258,39.1733 h 30.331201 v 3.7442 H 85.319659 v 13.917 h -3.5803 z m 0.1571,23.0994 30.331301,10.8571 v 4.0273 l -30.331301,11.5677 v -4.264 l 9.1876,-3.2965 v -11.8178 l -9.1876,-3.0993 z m 12.4573,8.1527 v 9.5872 l 8.396601,-2.9544 c 2.5494,-0.8949 4.6469,-1.5662 6.2924,-2.0006 -1.9493,-0.3616 -3.8771,-0.8682 -5.7981,-1.5262 z m -12.5542,33.8702 h 30.330901 v 12.5281 c 0,2.5204 -0.2753,4.4353 -0.819,5.7445 -0.5437,1.3098 -1.5042,2.3559 -2.8815,3.1453 -1.3838,0.7831 -2.9097,1.1715 -4.5759,1.1715 -2.1541,0 -3.961801,-0.6448 -5.437801,-1.948 -1.476,-1.2962 -2.4151,-3.3028 -2.8178,-6.0138 -0.5084,0.9935 -1.0096,1.7436 -1.5114,2.2567 -1.0734,1.0925 -2.4219,2.1254 -4.0325,3.1057 l -8.255,4.9156 v -4.7049 l 6.3135,-3.7375 c 1.8148,-1.0922 3.2129,-1.9937 4.1731,-2.7044 0.9679,-0.704 1.6457,-1.3359 2.0271,-1.895 0.3886,-0.5592 0.6567,-1.1252 0.8122,-1.7045 0.0916,-0.4275 0.1412,-1.1183 0.1412,-2.0857 v -4.3363 h -13.4671 z m 16.9416,3.7373 v 8.0408 c 0,1.7045 0.1903,3.0467 0.572,4.0075 0.3814,0.9674 0.988701,1.6976 1.821701,2.1978 0.8335,0.4999 1.7376,0.75 2.7192,0.75 1.4334,0 2.613,-0.4804 3.5378,-1.4543 0.9254,-0.9671 1.3844,-2.5003 1.3844,-4.5995 v -8.9423 z m -16.9411,28.7348 h 30.331001 v 20.4313 h -3.5804 v -16.6937 h -9.286601 v 15.6344 h -3.559 v -15.6344 h -10.3246 v 17.3518 h -3.5804 z m -0.2019,27.1328 30.331201,10.857 v 4.0273 l -30.331201,11.5677 v -4.2639 l 9.1875,-3.2966 v -11.8177 l -9.1875,-3.0994 z m 12.4572,8.1527 v 9.5872 l 8.396901,-2.9545 c 2.5491,-0.8949 4.6467,-1.5661 6.2924,-2.0005 -1.9496,-0.3617 -3.8774,-0.8682 -5.7984,-1.5263 z m -12.2673,24.6857 h 30.331301 v 3.7442 H 85.368459 v 13.9169 h -3.5804 z m -0.2344,26.8438 h 30.331201 v 3.7373 H 81.553659 Z m 1.2223,12.0196 3.5775,-1.0337 22.634201,8.5186 c 1.6132,0.6086 3.0338,1.2114 4.265,1.8206 l -4.3141,-15.1615 3.4418,-0.9944 5.5361,19.4562 -3.442,0.9944 -24.561701,-9.4061 -2.52,-1.0585 4.9371,17.3501 -3.4418,0.9944 z m 8.7146,25.6635 31.751301,-5.3233 1.9375,3.5222 -20.9636,24.9364 -2.0511,-3.7292 6.4499,-7.3722 -5.6854,-10.3361 -9.526701,1.7784 z m 14.817301,1.0441 4.6122,8.385 5.9224,-6.6863 c 1.7995,-2.0281 3.3111,-3.64 4.5412,-4.8239 -1.8788,0.6359 -3.8086,1.135 -5.8052,1.4978 z m 26.2128,31.338 2.137,3.2296 c -2.7457,1.9894 -5.4543,2.9734 -8.1167,2.9608 -2.6627,-0.0224 -5.0906,-0.999 -7.2983,-2.9329 -2.2815,-1.9989 -3.6987,-4.1268 -4.257,-6.3884 -0.5534,-2.2671 -0.3774,-4.6874 0.5323,-7.2569 0.9143,-2.5747 2.3192,-4.9654 4.2188,-7.1672 2.0711,-2.401 4.2967,-4.1291 6.6818,-5.1793 2.3857,-1.0504 4.7554,-1.3603 7.114,-0.9254 2.3537,0.4307 4.4621,1.4668 6.33,3.1028 2.1187,1.8563 3.3924,4.0003 3.822,6.4413 0.4291,2.4413 0.012,4.9709 -1.2606,7.5996 l -3.3661,-1.7042 c 0.9573,-2.113 1.2994,-3.954 1.0258,-5.5421 -0.269,-1.584 -1.1128,-2.9929 -2.5317,-4.236 -1.6263,-1.4247 -3.3476,-2.1874 -5.1736,-2.297 -1.8306,-0.1043 -3.5818,0.3608 -5.2572,1.4107 -1.6759,1.0404 -3.1719,2.3231 -4.4829,3.8431 -1.6957,1.9658 -2.9078,3.9025 -3.6503,5.8266 -0.7329,1.9227 -0.8649,3.7307 -0.3817,5.4271 0.4835,1.6964 1.3701,3.1054 2.6613,4.2363 1.5669,1.3727 3.319,2.04 5.256,2.0109 1.9415,-0.0342 3.9404,-0.8572 5.9971,-2.4594 z m 3.8825,14.3479 15.1656,-26.4715 3.2118,1.8686 -15.1656,26.4716 z m 15.2452,-7.6165 c 1.3034,-4.9015 3.5276,-8.412 6.6801,-10.5301 3.1519,-2.1179 6.637,-2.6653 10.459,-1.6332 2.4972,0.6744 4.5814,1.937 6.2416,3.7781 1.6583,1.8473 2.7086,4.0762 3.1422,6.6911 0.4356,2.6077 0.2553,5.3957 -0.5289,8.3447 -0.797,2.9973 -2.0585,5.5303 -3.7954,7.5884 -1.7387,2.0649 -3.7844,3.4282 -6.139,4.0966 -2.3605,0.6666 -4.71,0.6804 -7.0623,0.0451 -2.5543,-0.6897 -4.6538,-1.9713 -6.301,-3.86 -1.6556,-1.8839 -2.6875,-4.1297 -3.1042,-6.7325 -0.4182,-2.596 -0.2813,-5.1965 0.4079,-7.7882 z m 3.6794,1.06 c -0.9468,3.5607 -0.8139,6.5954 0.3948,9.1171 1.2149,2.5238 3.1439,4.1426 5.7923,4.8579 2.6995,0.7288 5.1936,0.2973 7.4845,-1.302 2.291,-1.599 3.9484,-4.2979 4.9591,-8.0992 0.6379,-2.3993 0.8167,-4.598 0.5494,-6.5931 -0.267,-1.9954 -0.989,-3.6783 -2.1574,-5.0548 -1.1765,-1.3716 -2.653,-2.3007 -4.4382,-2.7828 -2.5417,-0.6862 -4.9759,-0.3266 -7.3111,1.0835 -2.3335,1.4035 -4.0924,4.3324 -5.2734,8.7734 z m 27.167,21.5771 2.1158,-30.4922 3.7975,0.2676 13.0335,24.975 1.6611,-23.9395 3.5499,0.2501 -2.1158,30.4923 -3.7975,-0.2676 -13.0318,-24.9962 -1.6626,23.9607 z m 42.9905,0.0107 -6.3064,-29.8989 10.3466,-2.2162 c 1.82,-0.3898 3.2329,-0.5905 4.2308,-0.608 1.3986,-0.0449 2.6279,0.1791 3.6862,0.6727 1.0509,0.4881 1.9894,1.2982 2.805,2.4114 0.817,1.1203 1.3778,2.4188 1.6908,3.9017 0.536,2.5407 0.2499,4.8575 -0.8601,6.936 -1.1182,2.073 -3.614,3.5317 -7.4908,4.3623 l -7.0381,1.5075 2.5634,12.1544 z m 0.3195,-16.4612 7.0957,-1.5199 c 2.344,-0.5019 3.911,-1.3322 4.6935,-2.4965 0.7822,-1.1646 0.9921,-2.6063 0.6278,-4.3326 -0.2641,-1.2531 -0.7776,-2.2636 -1.5467,-3.0304 -0.7691,-0.7664 -1.6525,-1.1884 -2.6646,-1.27 -0.6496,-0.0429 -1.7927,0.1078 -3.4404,0.4608 l -7.0192,1.5035 z m 28.5226,9.5145 -12.3369,-27.9242 3.3941,-1.5228 10.8803,24.6279 12.6159,-5.6605 1.4563,3.2963 z m 23.6158,-10.8211 -16.9611,-25.3409 16.8076,-11.4248 2.0025,2.9916 -13.7332,9.3348 5.1927,7.7585 12.8618,-8.7426 1.9903,2.9737 -12.8618,8.7426 5.7738,8.6259 14.2741,-9.7031 2.0023,2.9915 z m 23.7857,-18.5233 -23.5718,-19.2362 2.3957,-2.9815 27.7763,3.566 -18.506,-15.1023 2.2393,-2.7871 23.5718,19.2362 -2.3956,2.9815 -27.7927,-3.5792 18.5224,15.1158 z m 17.6937,-23.2267 -25.856,-19.3196 1.1685,-3.8511 32.3617,-2.1254 -1.2369,4.0777 -9.7427,0.4453 -3.4283,11.3014 7.887,5.6709 z m -9.5479,-11.4668 2.7816,-9.1683 -8.8866,0.3513 c -2.6977,0.1046 -4.8986,0.1285 -6.5982,0.0589 1.7593,0.9205 3.456,1.973 5.1023,3.1683 z m 17.3031,-29.6404 h -30.3312 v -9.7319 c 0,-2.1977 0.1483,-3.8758 0.4379,-5.0337 0.3956,-1.6186 1.1228,-3.0005 2.168,-4.1455 1.3559,-1.4869 3.0792,-2.6058 5.1836,-3.3429 2.1044,-0.7434 4.5055,-1.1116 7.2101,-1.1116 2.3024,0 4.3432,0.2498 6.1229,0.7566 1.7795,0.4999 3.2555,1.1381 4.4208,1.9279 1.165,0.7831 2.0833,1.6383 2.7471,2.5729 0.6707,0.9277 1.1793,2.0529 1.5253,3.3687 0.3461,1.3227 0.5155,2.8363 0.5155,4.5405 z m -3.5804,-3.7373 v -6.0339 c 0,-1.8623 -0.1837,-3.3296 -0.5579,-4.389 -0.3743,-1.0597 -0.8969,-1.9017 -1.5747,-2.5333 -0.9465,-0.8883 -2.2317,-1.5791 -3.8348,-2.0727 -1.6101,-0.4936 -3.5522,-0.7435 -5.8471,-0.7435 -3.1711,0 -5.6072,0.4867 -7.3091,1.4541 -1.7091,0.9737 -2.8461,2.1518 -3.4252,3.5401 -0.4168,1.0001 -0.6213,2.6189 -0.6213,4.8365 v 5.9417 z m 3.581,-28.7941 h -30.3312 v -20.4313 h 3.5803 v 16.6937 h 9.2866 v -15.6343 h 3.5593 v 15.6343 h 10.3246 v -17.3517 h 3.5804 z m -0.2017,-30.0806 h -30.3312 v -3.7442 h 26.7505 v -13.9169 h 3.5807 z m 0.1834,-35.2846 h -30.3312 v -3.7441 h 12.4573 v -14.6866 h -12.4573 v -3.7441 h 30.3312 v 3.7441 h -14.2932 v 14.6866 h 14.2932 z m -14.7731,-31.202 c -5.0352,0 -8.9756,-1.2566 -11.8217,-3.777 -2.8458,-2.52 -4.2724,-5.7709 -4.2724,-9.7582 0,-2.6058 0.6709,-4.9614 2.0057,-7.0539 1.3416,-2.0923 3.2061,-3.6916 5.6001,-4.7903 2.3868,-1.0988 5.1057,-1.645 8.1352,-1.645 3.0791,0 5.8334,0.5724 8.2556,1.7306 2.4293,1.158 4.2653,2.7964 5.5153,4.9154 1.2501,2.1253 1.8714,4.4085 1.8714,6.863 0,2.665 -0.685,5.0404 -2.0691,7.1327 -1.3772,2.0992 -3.2626,3.6849 -5.6497,4.7641 -2.3797,1.079 -4.908,1.6186 -7.5704,1.6186 z m 0.0637,-3.856 c 3.6579,0 6.5323,-0.9145 8.6367,-2.7437 2.1044,-1.8359 3.1567,-4.1326 3.1567,-6.8961 0,-2.8162 -1.0592,-5.1322 -3.185,-6.9485 -2.1255,-1.8163 -5.141,-2.7307 -9.0463,-2.7307 -2.4647,0 -4.6185,0.395 -6.4616,1.1712 -1.8434,0.7764 -3.2697,1.9149 -4.2867,3.4083 -1.0098,1.5007 -1.5185,3.1784 -1.5185,5.0404 0,2.6521 0.9748,4.9286 2.9309,6.8369 1.9492,1.908 5.2118,2.8622 9.7738,2.8622 z m 14.5408,-31.7515 h -30.3309 v -5.6326 l 21.4751,-6.6853 c 1.9986,-0.6187 3.4957,-1.0726 4.4915,-1.3492 -1.1017,-0.3223 -2.7257,-0.8222 -4.8657,-1.5067 l -21.1009,-6.7644 v -5.0338 h 30.3309 v 3.6059 h -25.3878 l 25.3878,8.2119 v 3.3756 l -25.8186,8.1728 h 25.8186 z m 0.0337,-36.6831 h -30.3312 v -10.6072 c 0,-2.1584 0.3109,-3.8888 0.918,-5.1916 0.6144,-1.3095 1.5607,-2.3295 2.8389,-3.0663 1.2709,-0.7371 2.6059,-1.1123 4.0043,-1.1123 1.292,0 2.5141,0.3292 3.658,0.9869 1.1442,0.6518 2.069,1.6453 2.7753,2.9677 0.5369,-1.7105 1.4549,-3.0203 2.7472,-3.9411 1.2993,-0.9213 2.8315,-1.3819 4.5973,-1.3819 1.4195,0 2.74,0.2826 3.9618,0.8423 1.2218,0.5592 2.1609,1.25 2.8247,2.0728 0.6635,0.8222 1.1582,1.8554 1.4973,3.0924 0.3389,1.237 0.5084,2.7569 0.5084,4.56 z m -17.5847,-3.7442 v -6.113 c 0,-1.6513 -0.1195,-2.8423 -0.3528,-3.5662 -0.3036,-0.9475 -0.8051,-1.6648 -1.5114,-2.1452 -0.7063,-0.4803 -1.5886,-0.7238 -2.6478,-0.7238 -1.0033,0 -1.8928,0.2236 -2.6556,0.6712 -0.7696,0.454 -1.2925,1.0991 -1.5746,1.9282 -0.2824,0.8354 -0.4239,2.2699 -0.4239,4.3033 v 5.6455 z m 14.004,0 v -7.0341 c 0,-1.2108 -0.049,-2.0595 -0.1409,-2.5465 -0.1697,-0.8618 -0.445,-1.5791 -0.8333,-2.1584 -0.3814,-0.5787 -0.9465,-1.0527 -1.6807,-1.4279 -0.7417,-0.3683 -1.589,-0.5592 -2.5566,-0.5592 -1.1299,0 -2.1118,0.27 -2.9519,0.8096 -0.8333,0.5393 -1.4198,1.2896 -1.7587,2.2501 -0.3315,0.9542 -0.5009,2.3361 -0.5009,4.1325 v 6.5339 z m 3.7704,-26.7906 h -30.3309 V 167.626 c 0,-2.5203 0.2753,-4.4352 0.819,-5.7444 0.5437,-1.3098 1.5042,-2.3559 2.8814,-3.1454 1.3839,-0.7831 2.9098,-1.1714 4.576,-1.1714 2.154,0 3.9618,0.6448 5.4377,1.9479 1.476,1.2963 2.4151,3.3029 2.8179,6.0138 0.5083,-0.9935 1.0096,-1.7435 1.5113,-2.2567 1.0735,-1.0924 2.4219,-2.1253 4.0326,-3.1056 l 8.255,-4.9157 v 4.7049 l -6.3132,3.7376 c -1.8152,1.0921 -3.2133,1.9937 -4.1735,2.7043 -0.9676,0.7041 -1.6457,1.3359 -2.0271,1.8951 -0.3885,0.5591 -0.6567,1.1252 -0.8118,1.7045 -0.0919,0.4275 -0.1415,1.1183 -0.1415,2.0856 v 4.3364 h 13.4671 z m -16.9417,-3.7373 v -8.0408 c 0,-1.7045 -0.1903,-3.0468 -0.5719,-4.0075 -0.3814,-0.9674 -0.9885,-1.6976 -1.8217,-2.1978 -0.8336,-0.5 -1.7373,-0.7501 -2.7192,-0.7501 -1.4335,0 -2.613,0.4804 -3.5379,1.4544 -0.9254,0.9671 -1.3841,2.5002 -1.3841,4.5994 v 8.9424 z m 16.9423,-28.7349 h -30.331 v -20.4313 h 3.5804 v 16.6938 h 9.2866 v -15.6344 h 3.559 v 15.6344 h 10.3246 v -17.3518 h 3.5804 z"
     style="fill:#ffffff;fill-rule:evenodd"
     id="path4" />
  <path
     d="m 275.95496,127.7186 c -0.0806,0.1174 -0.1888,0.1571 -0.2175,0.368 -0.004,0.0337 -1.3025,3.0571 -1.2843,6.2294 2.2566,0.3467 7.0279,2.1949 9.4337,3.0146 4.1286,1.4057 3.3854,0.6285 3.4251,-9.0357 0.013,-3.1411 0.178,-6.6566 -0.0777,-9.7463 l -10.7646,-0.0105 -0.3869,5.614 z m 0.4317,26.7523 0.2897,-0.0567 c 2.2521,-0.61 4.0473,-0.868 5.0454,1.0599 0.1278,0.2474 1.5012,4.553 1.5386,4.9042 0.426,4.0127 -2.5172,6.1928 -2.4474,11.0307 2.5543,1.402 3.6898,3.553 6.417,4.597 l 0.0907,-30.7253 -15.1131,-4.9247 -1.1895,4.2574 c -0.5964,0.6568 -1.1678,1.6838 -1.2121,3.3769 l -5.2673,9.2568 3.3239,1.9231 c 1.7864,-0.4349 0.9533,-0.6537 3.0302,-0.0718 l 1.0202,0.349 c 0.1602,0.0521 0.3569,0.1378 0.5434,0.1755 l 3.1459,-3.5065 0.9981,-0.7951 z m -63.9176,374.5426 c -10.6243,-0.1792 -19.4862,-0.0153 -30.0645,-1.522 -4.5114,-0.6426 -8.7716,-1.4981 -13.1505,-2.3941 -4.1372,-0.8461 -9.074,-2.918 -12.8002,-3.2562 -4.3174,0.239 -20.9463,-7.4848 -25.0183,-9.5972 -20.9633,-10.8729 -41.247201,-28.0641 -52.463001,-50.9854 -10.2336,-20.914 -9.7245,-34.082 -9.7251,-59.7251 0,-20.2714 -0.6228,-339.6056 0.2548,-344.5401 l 272.882301,0.068 c 0.8991,5.0406 0.1993,300.3143 0.1993,301.5196 0,14.9813 0.7957,63.2877 -0.9822,74.6271 -4.5122,28.7836 -22.7452,53.8866 -44.6165,68.671 -15.5917,10.5384 -33.0095,19.0987 -52.2958,23.2146 -6.9905,1.4919 -24.9407,5.317 -32.2203,3.9198 z m 133.9398,-94.7994 0.0525,-4.4002 0.006,-3.2046 0.4652,-0.2389 0.1202,-373.5448 c -4.282,-1.0159 -133.0064,-0.2976 -141.1061,-0.2976 -8.2936,0 -136.503301,-0.747 -141.124001,0.2848 -0.5312,8.6528 -0.074,18.5565 -0.0882,27.3549 l -0.0226,296.5261 c -0.008,38.412 -3.4663,64.7339 14.0422,93.5419 50.250101,82.6823 198.225101,86.3192 252.421301,2.6849 3.3976,-5.2429 6.5741,-11.1234 9.189,-17.7803 1.2847,-3.2723 2.3446,-6.4683 3.339,-10.025 0.5153,-1.8428 1.8391,-9.8155 2.7053,-10.9012 z m -72.4751,-255.973 c -0.4952,2.5648 -1.1142,1.9806 -3.7045,3.4656 -4.6662,2.6742 -5.8207,6.7468 -8.3322,13.3455 l 0.4144,0.2812 c 2.1166,1.44 11.3876,17.5663 13.3447,20.577 1.2248,1.8845 3.4636,5.2005 4.1831,7.0866 -1.0457,1.2671 -4.553,4.3248 -5.9599,5.0173 -1.4224,-2.0554 -14.1485,-21.984 -15.0001,-24.3691 -0.5816,0.5598 -0.2914,0.1088 -0.8654,0.9901 -2.3091,3.5482 -2.243,10.2827 -9.0791,18.4068 -6.1407,7.2986 -5.0522,2.9115 1.0996,23.6579 1.8521,6.2459 3.6833,12.0459 5.43,18.1531 l -7.2465,2.8837 -9.6686,-31.0504 c -1.6694,1.8258 -6.448,12.4554 -7.9631,15.6007 -4.616,9.5828 -0.9479,7.3432 -3.8294,19.9772 -8.3633,36.6718 -1.9601,32.1046 -1.6764,40.2369 1.2235,35.0771 -6.9012,40.6846 -7.2966,51.7853 -0.1616,4.5318 -1.3845,5.4193 -0.3762,10.296 1.3717,6.6306 2.088,13.7611 -0.0238,20.0957 l 0.686,-0.2316 c -0.1468,-1.8992 0.4986,-1.6155 2.6178,-2.0273 9.8773,-1.9199 15.6464,-0.8088 22.1003,5.4068 4.7815,4.6048 3.8568,5.0388 3.7823,13.0223 -0.0496,5.2745 -0.4541,11.9807 0.0581,17.0745 0.7866,3.2494 -0.0111,12.9793 -0.1236,17.0805 -0.1296,4.7522 -0.6877,13.1178 -0.0159,17.4293 l -7.8803,0.5809 c -5.476,-0.4054 -15.3839,0.6607 -21.3421,0.9124 -5.328,0.2243 -5.8858,-0.3605 -8.9353,2.6246 -2.1935,2.1473 -5.4709,2.1858 -8.0839,0.7458 -1.4448,-0.7965 -2.006,-1.9567 -3.2754,-2.4933 -1.491,-0.6302 -13.6913,-1.1673 -15.7224,-1.2841 -3.2309,-0.1851 -18.0334,-1.3411 -19.6183,-2.5444 -0.6437,-0.8099 -0.2831,0.5975 -0.6142,-1.4811 -0.0496,-0.3093 -0.027,-1.6515 -0.0264,-2.0512 l -0.1344,-11.404 c -0.2086,-14.2759 -0.7554,-32.7002 -0.4308,-46.207 1.8371,-1.6124 1.1525,-0.7866 1.9485,-2.2144 0.902,-0.2841 0.0783,0.1822 1.2773,-0.6086 7.7,-5.0794 5.2084,-6.2187 20.0719,-5.0947 0.1669,0.0121 1.6625,0.0385 1.7628,0.0121 1.2407,-0.3279 -0.1689,0.9916 0.9272,-0.7401 -0.7849,-7.0222 2.5736,-17.8665 0.559,-30.2111 -2.8573,-17.5158 -5.5783,-30.6238 -3.3743,-49.0314 4.3353,-36.214 -2.8942,-24.5837 -3.0952,-49.1114 -0.0391,-4.8121 -0.7849,-4.6658 -2.4766,-8.2995 -2.5991,-5.5823 -3.5464,-10.6042 -5.6594,-16.0745 l -1.5477,3.7528 c -1.7059,5.347 -6.7422,23.1347 -8.3957,25.549 l -7.0999,-2.8452 c 0.4397,-3.6045 3.1584,-11.2251 4.407,-15.1815 l 4.0298,-13.0751 c 0.1485,-0.4736 0.3166,-1.0984 0.4535,-1.5899 0.7464,-2.6802 2.4126,-4.9844 1.6778,-6.6175 -3.8452,-8.5498 -6.5534,-8.5192 -8.024,-11.2053 -0.97,-1.772 -1.69,-4.7512 -2.7323,-6.1532 l -3.1116,-8.191 c -1.4907,1.8794 -4.2395,6.1067 -5.1055,8.191 l -11.8516,17.5436 c -1.4956,-0.6956 -4.6747,-3.7771 -5.7294,-5.1213 0.8881,-2.5988 13.0127,-20.7709 15.5205,-24.8661 4.0774,-6.6575 3.9064,-3.981 -0.0672,-13.8416 -1.3997,-3.4736 -0.9694,-4.121 -4.3336,-5.4816 -3.7913,-1.5327 -2.7039,-2.6042 -4.8892,-4.76 -2.9472,0.6307 -8.6547,6.8834 -11.9486,8.4799 -0.1559,-2.6796 -0.4218,-1.4284 1.4278,-2.6623 1.2725,-0.8484 1.3422,-0.6945 2.4211,-1.8564 -2.207,1.1117 -1.5177,1.8343 -4.2369,1.9114 0.6369,11.791 -0.1185,26.289 -0.1216,38.4193 l -0.1211,190.9565 c -0.0365,13.8881 1.2419,21.2942 7.7587,30.6885 3.49,5.0317 14.6877,16.8599 19.8366,17.7454 2.5486,3.4339 17.5351,8.6182 21.022,9.7044 17.0402,5.3096 35.9813,5.2064 53.4467,2.3343 4.8124,-0.7908 20.6722,-4.2601 23.1055,-6.9091 5.8779,-0.2146 21.9841,-11.5699 24.8366,-14.4632 16.2425,-16.4761 14.1358,-23.7858 14.1395,-45.3104 0.004,-22.5868 0.4858,-217.3451 0.0756,-218.3837 -1.061,-1.2535 -9.4047,-8.1504 -10.8833,-8.7233 z m -43.8462,8.9093 c 0.8543,0.7469 0.6905,0.9527 1.1293,2.298 0.3381,1.0381 0.5507,1.7671 0.8631,2.7408 1.1325,3.5346 4.5383,15.761 5.9514,17.2327 2.1234,-1.902 4.5671,-6.6305 6.4564,-9.1171 10.0642,-13.6528 8.0538,-4.801 -0.1675,-21.357 l -12.1963,6.5449 c -1.7292,0.8654 -1.4375,0.9125 -2.0364,1.6577 z m -45.6696,7.0007 c -0.5564,1.0091 -5.8337,17.6465 -5.9156,20.048 0.769,0.8986 1.6154,1.5631 2.2646,2.4154 0.665,0.8731 1.1698,2.2292 1.8691,2.9407 1.2201,4.265 5.1642,6.0585 9.3334,9.6653 1.4046,1.2149 1.6509,2.4191 3.0818,3.5952 1.143,-3.8472 3.5859,-7.7454 1.1223,-14.0429 -0.6682,-1.7076 -0.2319,-0.5751 -0.6696,-1.2438 l -0.1899,-2.2969 c -1.3697,-10.5171 -3.6558,-7.5884 0.5355,-17.8566 2.4154,-5.9179 11.4925,-4.2769 17.3395,-3.3996 5.8952,2.7913 2.3757,1.6611 5.0023,3.9801 1.33,4.4944 1.1293,6.1164 0.4345,11.0662 -0.6723,0.8337 -2.7561,10.3675 -2.6452,12.4662 -3.6944,2.7029 -0.9477,8.3138 0.3157,9.9287 0.296,-0.182 9.1605,-7.8217 9.5321,-8.5907 0.8617,-0.5202 1.857,-2.1362 2.4106,-2.8948 0.9204,-1.2625 2.0061,-2.5217 2.391,-3.4483 2.2334,-0.8844 2.0426,-1.6895 1.203,-4.3495 -0.5612,-1.7787 -4.0756,-13.3257 -4.7576,-14.5499 -0.0661,-0.1174 -0.1971,-0.277 -0.2543,-0.3722 -0.0593,-0.0973 -0.1766,-0.2543 -0.271,-0.3773 l -0.5732,-3.4033 -1.4377,-4.4501 c -2.6544,-0.5576 -6.304,0.989 -9.2336,1.4638 -3.0634,0.4964 -6.62,0.9088 -9.8838,0.9303 -7.3531,0.0488 -13.1922,-2.1875 -19.6552,-2.9786 z m -55.0636,-58.1474 7.5524,-2.3972 -1.3955,-9.4544 -0.434,-5.6194 -11.7989,-0.003 -0.0275,18.9782 z m -0.3537,34.5558 c 1.3048,-0.4425 2.4344,-1.4485 3.3202,-2.3905 l -0.741,-4.0915 c -0.6582,-0.4793 -0.2676,0.0445 -0.9425,-0.8209 -0.4065,-0.5207 -0.2268,-0.4363 -0.5737,-1.0616 -0.6792,-1.2231 -0.009,-0.4323 -0.8606,-1.3002 0.4136,-7.2856 -3.1547,-11.5983 2.4386,-12.2879 l -0.5972,0.8943 c 2.3374,-0.1137 2.1747,-0.093 3.4914,1.0239 2.1864,0.5144 2.5549,1.3813 3.0169,3.3927 0.1284,0.4133 0.2378,0.8949 0.5213,1.3057 0.8362,1.2112 -0.1321,0.155 0.7917,0.6208 0.1491,0.0527 0.3453,0.1156 0.4425,0.1695 0.0916,0.0507 0.2993,0.121 0.4056,0.1871 0.0973,0.0603 0.2416,0.1564 0.3419,0.2259 1.5854,1.1032 0.1514,0.9212 2.2768,1.2501 0.8158,-0.5117 1.9046,-0.4298 3.1447,-0.2305 2.6037,0.4176 -0.7758,-0.6882 0.7317,0.2035 -2.4169,-5.6055 -5.9797,-11.1894 -7.528,-18.1219 l -15.5047,4.845 -0.0958,33.3108 1.6081,-1.4675 c -2.1313,0.6472 -0.489,0.3124 -1.1645,-0.3118 0.7983,-2.245 3.5164,-2.2039 5.4766,-5.345 z m 43.8262,38.9401 c 1.5431,-1.8596 6.0582,-19.3275 7.3992,-23.3773 -5.4343,-1.6266 -9.9958,-4.8745 -14.2254,-7.4288 -1.4521,2.0775 -3.1685,5.1018 -4.674,7.4582 -3.24,5.0706 3.4209,8.5638 7.0645,14.8916 2.2334,3.8795 -0.36,6.9324 4.4357,8.4563 z m 76.113,-34.1207 c 1.9803,2.3262 4.8206,8.1134 7.2043,9.5222 1.7456,-1.1069 0.3869,0.0581 1.6149,-1.7036 2.3967,-3.4404 2.7414,-2.9937 2.4443,-7.2873 -0.5032,-7.2817 2.1178,-5.033 2.7028,-11.0107 l -2.2646,-1.7957 z m -96.2521,5.1781 c 0.6803,2.3173 0.0488,0.5448 0.9247,1.2353 0.102,0.0545 0.2463,0.0539 0.2874,0.1956 l 1.8494,1.0012 c 1.277,-1.239 4.6765,-6.5106 5.1788,-8.1193 -2.6594,-2.5494 -4.0053,-3.7284 -6.2435,-6.1869 -1.7536,-1.9252 -4.0536,-4.4135 -5.4556,-6.5797 -0.6729,2.893 1.319,5.8799 1.9259,9.0541 0.5096,2.6685 2.1191,8.2148 1.5329,9.3997 z"
     style="fill:#ffcb00;fill-rule:evenodd"
     id="path6" />
  <path
     d="m 209.54866,142.3878 2.105,2.8758 3.6539,-0.5764 -0.5599,3.8372 2.7059,2.0226 -2.4583,1.7499 c -0.0465,-0.0972 -0.2231,0.0862 -0.3888,0.1363 l 0.6552,3.9723 -3.8048,-0.6662 c -0.0489,0.0929 -0.121,0.2273 -0.1503,0.2775 -0.03,0.0513 -0.1168,0.2194 -0.1553,0.2836 -0.0409,0.0678 -0.1277,0.2163 -0.1754,0.2933 -0.0721,0.1156 -0.3227,0.4878 -0.4046,0.6106 -0.4254,0.6437 -0.6797,1.011 -1.1668,1.6057 l -1.9694,-3.0628 -3.8005,0.5868 0.4052,-3.7957 -2.7425,-2.1454 2.836,-1.9363 -0.4969,-3.762 3.6746,0.4688 z m -10.5735,28.1967 c 15.4143,6.9055 30.5273,-2.1772 32.6983,-16.5628 1.3398,-8.881 -2.4687,-15.5671 -6.8517,-19.7655 -8.7783,-8.4073 -15.4974,-5.24 -20.7319,-6.0725 -0.4553,0.3081 -0.0831,0.1565 -1.1411,0.6669 l -2.275,0.8844 c -1.1546,0.4817 -1.9968,0.904 -3.1025,1.5678 -5.3775,3.2266 -9.428,8.7025 -10.5759,15.9008 -1.5965,10.0093 3.4558,18.4453 11.9798,23.3809 z"
     style="fill:#3b297b;fill-rule:evenodd"
     id="path8" />
  <path
     d="m 358.80626,170.0356 c -1.5599,-8.0362 4.7471,-19.2466 7.5648,-25.1841 7.8409,-16.5229 -4.6213,-18.8169 -4.8835,-22.4407 10.1585,-2.7805 18.6114,8.1646 14.0587,23.8685 -1.5067,5.1954 -3.8515,10.1163 -6.8256,13.8558 -2.1452,2.6974 -6.8357,8.6403 -9.9144,9.9005 z m -225.2526,361.3879 c 1.6421,1.2767 2.1257,1.0689 4.0462,1.4405 l 0.6825,-3.3482 c -1.2418,0.8146 -0.6925,0.5757 -2.1977,1.1106 -1.489,-0.9131 -0.9425,-0.9082 -2.429,-1.319 z m -17.1564,1.8655 -2.0189,0.6128 c -1.4045,-2.05 -1.8257,-6.8553 -1.199,-9.9071 1.8819,-0.5771 2.2748,0.3405 3.6819,1.2158 z m -4.1148,3.4007 c 2.7329,-0.0513 5.4743,-1.4046 5.9386,-3.869 0.1908,-1.0086 0.398,-8.087 0.2996,-9.241 -2.3873,-1.0153 -4.1476,-2.6098 -6.9826,-2.8777 -0.3441,1.8961 -0.682,5.3972 -0.4841,8.1493 0.1976,2.7389 1.2523,5.3952 1.2285,7.8384 z m 81.9306,13.2219 c -0.6789,-2.319 -1.561,-4.739 -0.9717,-7.4599 l 26.4713,0.0476 c 0.2413,1.5194 0.1962,3.8616 -0.3954,5.3694 -1.5656,3.9878 -21.2547,2.8117 -25.1042,2.0429 z m -6.7912,-9.3322 c 1.7665,4.7619 1.6846,8.007 2.7144,12.8826 5.0483,1.599 25.5226,1.277 30.0623,-0.0799 2.9741,-0.8895 2.3238,-4.0128 3.3647,-6.952 0.9547,-7.1135 3.5969,-9.0975 -0.2109,-9.1758 l -17.4055,0.912 c -16.3477,0.2548 -20.3066,-3.2701 -18.525,2.4131 z m 89.2508,-6.9557 c 0.5091,1.0673 0.7395,1.5758 1.2413,2.4375 0.2199,0.379 0.6259,0.959 0.777,1.2728 0.5096,1.0573 0.2871,0.432 0.4773,1.4587 1.993,1.0423 0.7095,1.0074 3.0212,1.5874 1.1455,-3.8871 2.1192,-5.3149 -1.2059,-8.0081 -1.961,-0.002 -3.0617,0.5879 -4.3109,1.2517 z m -146.2246,8.515 c 1.7248,-0.7115 3.2791,-3.0353 4.301,-4.8892 1.5355,-2.7859 -1.08,-3.2754 -3.8518,-3.1342 -1.9822,2.639 -3.0568,4.5694 -0.4492,8.0234 z M 8.1758589,341.0127 c 2.4001001,0.5176 4.1440001,1.8136 4.0124001,4.4124 -2.8408001,0.3668 -4.6672001,-1.8868 -4.0124001,-4.4124 z m 1.4734,-3.7724 c -0.4626,-0.013 -0.7565,0.6741 -0.3537,-0.3081 -1.9517,0.3801 -1.6875,0.637 -2.4492,2.6405 -0.5445,1.4315 -0.8716,1.9576 -1.0941,3.4832 1.4051,2.6419 3.7114,4.7633 7.7828001,4.7707 l 1.135,-5.2877 c -2.2391,-3.341 -3.5745,-2.0628 -5.0208001,-5.2986 z m 390.0564011,6.109 c -0.1625,-2.4551 2.0647,-4.468 4.0804,-4.0762 0.4873,2.6166 -1.6075,4.4175 -4.0804,4.0762 z m -1.2504,2.1832 c 3.9832,0.7722 5.7864,-2.0877 7.6518,-3.9832 -0.0569,-2.1056 -1.2568,-5.0712 -2.4766,-6.6365 -1.2569,0.4241 -5.6636,4.4161 -6.6416,5.6115 z m -113.4811,196.757 c 2.6453,0.0973 6.7913,-1.9284 9.5185,-2.6759 l 1.1968,-0.8396 c -0.1644,-0.9621 -0.1823,-0.8186 -0.2985,-1.4907 -0.2021,-1.1656 -0.0318,0.1904 -0.2106,-1.2153 -0.5687,-0.4371 -0.4181,-0.2828 -0.9513,-0.7939 -0.0678,-0.0655 -0.5599,-0.6835 -0.6112,-0.7458 -2.2541,0.0558 -4.3628,0.8266 -6.2546,1.7263 -2.5322,1.2047 -2.6263,2.7881 -2.3891,6.0349 z m -167.6129,-0.8093 1.1314,0.2209 c 2.9233,0.7151 5.7228,2.3524 8.7562,2.2419 0.316,-3.4382 0.083,-4.8586 -2.3789,-5.9565 -1.7433,-0.7772 -3.9594,-1.6812 -5.8629,-1.7229 -1.385,1.3717 -1.6098,1.4607 -2.6433,3.5286 z m 276.7836,-212.0025 c 5.0811,-1.1557 5.3139,3.4191 3.2896,4.8319 -2.9724,2.0738 -4.9858,-1.368 -3.2896,-4.8319 z m -0.7279,-2.0571 c -6.5296,3.1481 -2.7831,12.6771 3.7344,10.203 5.8915,-2.2371 2.5268,-13.2225 -3.7344,-10.203 z M 37.240359,315.0774 c 2.5092,0.4138 2.9687,-0.3093 4.0274,2.2391 0.6387,1.5372 0.7988,3.3335 1.2444,5.0425 0.0715,2.308 1.0531,2.6422 2.2981,3.8152 1.2798,1.2053 1.6937,2.0177 3.24,2.7858 1.8269,-3.446 1.5831,-9.3724 -1.0366,-12.2989 0.9657,-7.0608 12.5319,-26.655 11.0551,-30.1091 -0.1973,-0.4609 -2.3689,-3.0843 -2.7267,-3.5254 -0.1423,-2.5362 1.0012,-3.8092 -0.0116,-5.6319 -0.699,-1.2591 -2.1521,-2.2376 -3.1348,-3.683 -0.343,-3.8832 1.7047,-8.8248 1.8306,-12.9379 -0.6534,-0.7671 -0.6778,-0.726 -1.3765,-1.4162 -1.328,-1.3116 -0.5953,-0.1497 -1.4871,-1.9276 -0.1088,-0.0306 -0.2769,-0.2092 -0.3191,-0.1145 -0.1123,0.2526 -0.6931,-0.7475 -2.507,-0.9728 -1.4794,2.548 -3.3562,11.7737 -4.4558,15.2419 -4.424,13.9521 -7.5835,22.3063 -14.2469,34.901 -4.9808,9.4141 2.0806,6.9429 7.6065,8.5918 z m 8.8259,0.3362 c -2.5934,-1.4999 -5.1072,-1.6183 -8.1836,-1.6764 0,0 -0.0952,-1.5721 -2.7136,-1.8913 -1.9157,-0.2333 -2.1889,0.4651 -4.5091,0.0246 -2.0109,-6.0273 6.9611,-13.0802 11.706,-3.9534 0.1774,0.3415 0.5264,1.1639 0.6687,1.4051 0.6607,1.1163 0.4592,0.7458 0.9357,1.184 3.8387,-5.6483 8.7338,-22.8016 10.3498,-25.2 2.8123,2.0758 2.4126,3.1071 1.0214,6.5169 -1.0483,2.5684 -2.1067,5.1874 -3.121,7.7326 -1.7155,4.3089 -5.1922,11.734 -6.1543,15.8579 z m 337.315201,9.5326 -0.9397,7.1475 4.1063,0.3167 c 1.7983,-2.0591 2.9724,-5.0077 4.7466,-6.3542 2.4321,-1.8465 5.7626,-1.4139 9.0833,-1.773 l 1.0378,-4.4646 -2.8225,-1.957 c -0.0887,-0.0604 -0.2463,-0.1713 -0.3625,-0.2665 -2.6807,0.6559 -5.3028,-0.6999 -6.7538,1.9315 l -1.2396,3.5005 -4.2021,-2.6767 c -1.734,1.4712 -1.6197,2.4151 -2.6538,4.5958 z m -371.730301,1.3637 c 4.5768,0.6118 7.2819,-0.4853 10.0153,2.8336 0.8949,1.0868 1.5574,2.2662 2.4982,3.6935 1.4993,2.2751 2.3239,1.7413 5.3133,1.4357 -0.7634,-4.2882 -0.5984,-9.4983 -3.6196,-11.8519 -2.2311,0.7401 -1.9145,1.6917 -4.3208,2.5217 -0.8935,-2.1912 -0.7152,-8.356 -10.7603,-3.7156 -0.2861,2.5194 -0.1347,3.0208 0.8739,5.083 z m 41.6905,-154.3062 c -3.1008,-0.7072 -8.5337,-7.7099 -10.6089,-10.387 -2.6632,-3.437 -5.224,-8.7471 -6.5486,-13.6289 -4.3183,-15.9211 4.5164,-26.4975 14.1925,-23.516 -0.1296,1.3513 -0.5386,1.1753 -1.4956,1.9945 -0.8008,0.6857 -1.4706,1.3385 -2.143,2.0052 -1.6991,1.6872 -2.3006,2.5506 -3.1215,5.1508 -3.8012,12.0379 9.0766,17.7602 9.7251,38.3814 z m -19.7943,-40.6043 -1.0568,3.1397 -0.1026,14.5134 c 1.3751,2.1333 0.3631,7.1929 0.7549,10.296 1.9755,1.1894 10.5477,7.7453 12.2176,9.4782 1.5092,1.5672 8.8858,10.6307 10.5123,11.1461 2.0316,-2.5696 0.9377,-11.2788 0.4266,-14.8031 -1.8434,-12.6009 -14.7144,-22.7469 -8.653,-33.2093 2.781,-4.801 5.8549,-5.1965 8.4208,-7.2882 -1.7243,-2.6257 -3.0489,-2.4834 -4.6374,-3.3959 -8.9329,-0.5 -15.8984,2.577 -17.8824,10.1231 z M 235.43566,543.7341 c 0.6142,1.2784 1.7101,2.0035 1.5976,3.7148 -0.2512,3.833 -8.1128,5.1769 -7.7808,-1.514 0.4957,-9.9984 12.863,-8.2599 12.9194,-8.2287 2.2774,2.5999 10.2617,16.2961 11.1838,20.2802 2.1076,9.104 -5.2234,15.4754 -11.2793,19.9196 -5.7637,4.229 -12.7579,8.1326 -20.5693,10.9559 -10.2079,3.6899 -17.1111,3.2933 -27.8238,0.8907 -7.8443,-1.7598 -17.4112,-5.0874 -22.6573,-8.9201 -3.7423,-2.734 -13.0085,-11.4188 -12.3539,-19.4111 0.5147,-6.2858 7.3292,-17.8512 10.2509,-21.4971 2.2045,-2.7505 13.996,-3.5354 14.6251,5.5517 0.2177,3.1422 -0.6033,3.9234 -2.2921,5.5584 -6.2516,0.2755 -6.2998,-3.0659 -4.1568,-7.3261 -4.6856,1.2586 -9.8583,7.2808 -11.3094,12.7627 -2.3354,8.8237 0.2829,13.4739 4.9386,17.4277 8.5181,7.2337 20.8462,12.3417 35.208,12.7219 14.868,0.3931 26.7162,-6.5322 34.6555,-13.3152 3.748,-3.2029 8.8571,-8.0235 5.9287,-16.2176 -1.7028,-4.7645 -5.1123,-13.0935 -11.0849,-13.3537 z m 38.658,-0.6855 c -2.5296,0.9701 -3.1053,0.7787 -2.971,3.4989 3.066,0.7338 3.7506,-1.2603 6.4214,-0.2849 1.1474,1.0304 1.8073,1.9706 1.72,4.221 -1.3464,1.3936 -4.356,2.9957 -6.5602,3.5725 -1.1429,-1.0825 -2.2436,-2.6881 -3.21,-3.886 -1.3013,-1.6132 -1.9335,-2.4497 -3.1637,-4.083 -6.9038,-9.1633 -13.6344,-15.5934 -1.5775,-8.2729 1.817,1.1032 7.5668,4.8569 9.341,5.2344 z m -134.316,11.6091 c -2.2787,0.0575 -3.8171,-0.9604 -5.3677,-1.8893 -2.0806,-1.2464 -2.0324,-4.0218 -0.3483,-5.2793 2.2283,-1.6631 8.3111,2.3094 8.255,-1.5658 -0.0232,-1.6087 0.004,-0.7096 -2.2187,-2.1314 4.6188,-2.1643 10.8136,-8.4524 14.9159,-8.9702 -0.6973,1.6001 -13.5952,18.2834 -15.2362,19.836 z m 198.2843,-43.564 0.2537,-5.2197 c 3.0433,-2.168 3.8569,-4.1808 6.5937,-6.77 l 6.3476,-6.8505 1.8649,4.5017 c -3.7366,2.7431 -11.7189,12.4186 -15.0599,14.3385 z m -234.733,-0.4414 c 0.0995,0.1009 0.2333,0.1279 0.2925,0.3087 0.2226,0.6835 1.8834,0.9003 2.3497,0.9652 7.8261,1.0854 11.4046,2.5379 15.3365,10.4664 1.7408,0.2415 4.8697,0.1754 6.2847,0.5312 1.4939,0.3747 2.3176,1.8978 3.8347,2.9296 2.9968,-0.4127 3.028,-1.3019 6.6396,-0.4748 0.8949,1.1341 0.8198,1.8377 1.6407,2.6929 5.4655,-0.7951 7.5833,2.9203 4.9612,7.2587 l -5.7821,8.21 c -0.0428,0.0655 -0.1352,0.212 -0.214,0.3092 -3.7707,-0.4578 -5.0817,-1.3555 -6.9605,1.8159 -5.1661,8.7239 -0.9456,8.3231 3.7004,11.2765 4.3854,2.7876 3.2643,1.1452 6.3524,-0.1891 l 3.606,9.7229 c -7.0558,-0.0374 -12.9674,-3.0966 -16.7998,-6.8193 -1.6215,-1.5747 -9.1273,-11.3638 -9.9746,-13.9677 -1.0811,0.9198 -0.3441,-0.1117 -0.6361,1.7761 l 4.4161,12.0552 c -3.6595,-0.5635 -15.6319,-4.6253 -17.1981,-7.0424 -1.0689,-1.6503 -1.5681,-7.0701 -2.649,-9.2625 -2.1398,-4.3415 0.4023,0.5165 -1.413,-9.4016 -2.427901,-1.3221 -2.320201,13.8554 -2.598301,15.4593 -1.8306,-1.3 -7.4928,-3.8727 -10.1871,-5.2926 -3.7542,-1.9777 -6.6991,-3.5033 -10.5423,-5.4836 -4.5372,-2.3375 -4.1032,-2.6436 -7.6757,-8.3787 -1.4247,-2.2878 -5.0326,-8.3681 -5.485,-11.0471 1.3433,0.7231 2.4687,1.9156 3.8214,2.8862 l 11.9032,9.8388 c 8.7296,6.9477 5.4051,8.0827 9.9947,11.2116 1.8813,1.2824 3.3942,2.2345 5.5309,0.9272 0.0723,-2.0594 -3.609,-1.1994 -4.1612,-5.3496 -0.4547,-3.4203 1.3663,-5.8566 2.2884,-7.9945 -4.1984,2.0415 -3.0297,2.6966 -3.8665,1.652 -1.3385,-2.2535 -0.0227,-6.4202 0.2696,-8.9269 -3.4656,1.5812 -4.3359,5.6668 -4.9314,10.2306 -2.4968,-1.0092 -16.6984,-14.7314 -20.4384,-16.9277 l 1.2186,-5.7118 c 2.5747,1.9687 5.4627,4.2358 7.907,6.3788 2.7448,2.4063 0.7628,6.7368 5.6585,9.076 -1.2212,-6.0628 -2.577,-7.0297 3.1912,-9.152 1.1155,-0.4099 0.8728,-0.3427 1.3445,-0.792 -3.6249,-3.0903 -5.5227,-1.1746 -8.8208,0.1112 -2.1266,-1.4143 -14.6461,-13.8606 -16.7562,-16.6709 0.5111,-1.9993 0.6602,-3.3588 1.9023,-4.6576 l 12.6417,13.0391 c 0.1259,0.2849 -0.2438,3.5067 0.3277,4.8611 0.8184,1.9401 0.0887,0.4088 0.9779,1.1705 3.4847,-6.806 1.8417,-4.3237 7.6451,-4.9955 l 0.5026,-0.1877 c 0.3041,-1.4014 -2.7587,-3.4498 -8.2761,-2.1002 -1.9729,-1.4717 -8.1694,-9.1057 -10.3932,-11.7589 -2.1776,-2.5997 -9.3013,-9.6764 -9.7977,-12.4481 l 3.7035,-3.3557 6.6144,7.5521 c 3.9345,4.0385 30.8488,32.216 31.1612,33.0633 -0.157,4.0303 -2.0182,6.8182 1.4644,9.76 0.0397,-3.3741 -0.3087,-4.3949 0.811,-7.2737 1.8099,-4.1874 7.284501,-5.798 12.664101,-5.2098 l 1.1973,-0.1194 c -5.9712,-5.1536 -9.7435,-1.8175 -15.172401,0.7966 -2.4798,-2.7737 -2.2176,-1.552 -3.229,-3.8336 -0.0978,-0.0337 -0.2525,-0.2024 -0.2854,-0.1216 l -0.5471,-0.3223 -34.7899,-37.4808 c -2.0755,1.9168 -5.3391,5.1874 -6.7924,7.5795 2.13,3.4101 5.3884,6.0401 7.422,9.315 l -2.3185,7.8072 c 2.789,2.3011 5.7566,5.6134 7.99,8.2354 l -1.684,7.2173 c -1.2518,-1.3203 -4.6134,-7.8474 -5.8315,-10.112 l -8.4067,-15.3899 c -4.278,-7.4494 2.5523,-68.9238 -5.4073,-83.5962 4.9898,-1.1203 7.6487,-3.1564 8.5991,-8.0147 l 6.8457,0.2767 c 0.4533,26.0796 2.6592,44.4546 12.8551,65.3386 6.0472,12.3876 13.9791,25.8874 24.283,34.2 2.5328,2.0435 8.101201,7.0511 7.870701,11.5599 z m 205.7485,2.4682 c -3.4894,-0.9998 -7.5577,-0.2348 -9.4929,1.6571 3.3961,0.239 8.2698,0.0524 10.2378,2.3825 2.513,0.4723 5.2872,4.0303 5.1784,7.4268 0.5386,0.3614 0.5808,-0.0904 0.9975,0.5598 0.8759,-3.5407 0.9944,-3.8792 0.1584,-7.3774 3.1544,-2.1728 7.2465,-7.4396 9.5497,-9.9437 l 4.9189,-4.8875 c 2.8287,-3.0872 22.7679,-24.3612 24.3814,-25.2689 0.7231,1.2022 1.33,1.7434 2.1688,3.0408 -1.2617,2.7737 -18.0831,20.8678 -20.2765,24.3144 -3.2536,-0.8419 -5.7657,-1.4346 -6.8942,2.1079 4.6486,-0.2994 6.2793,0.9561 5.7736,5.7396 -2.7136,-0.006 -6.7294,-3.2868 -8.8868,1.6594 l 5.0357,0.011 c 0.5292,1.2107 1.1265,2.2901 1.1741,3.9765 0.0312,1.0836 -0.1613,1.4289 -0.2353,2.3105 -0.3223,3.8395 -0.3197,1.3433 0.5726,2.3799 3.7517,-4.795 -0.1014,-3.2981 5.311,-8.5379 1.2583,-1.2183 2.2156,-2.0747 3.3996,-3.3324 1.1699,-1.2433 1.9106,-2.4027 3.5218,-3.5243 0.8654,1.0788 1.6064,3.7839 1.8519,5.4978 -1.0293,1.2982 -19.5546,16.2779 -20.9994,17.0115 -2.4675,-4.1442 0.4014,-5.8073 -5.0598,-9.0014 l 0.3367,8.3486 c -2.5412,-0.1188 -1.7742,-1.9261 -4.9977,-2.0452 6.2104,5.9074 -0.1571,12.1717 -0.1486,14.6143 5.0168,0.7957 6.5699,-2.4242 8.3523,-5.5987 2.2408,-3.9915 3.5462,-4.5292 6.8273,-7.147 5.2387,-4.1808 10.2237,-8.3211 15.2535,-12.3644 -0.8399,2.7218 -3.7548,7.1739 -5.2552,9.9433 -3.1178,5.7552 -3.1425,7.1028 -7.0945,8.9572 -3.7735,1.7708 -18.3266,9.936 -21.5686,9.7753 l -1.2152,-10.2501 c -0.0297,-0.2945 -0.1644,-1.6171 -0.2253,-1.8269 -0.694,-2.3788 0.0365,-0.3801 -0.7796,-1.4077 -0.6091,3.1331 -3.1178,15.7272 -4.672,17.1496 -1.3575,1.2419 -12.9084,6.825 -15.2119,7.4208 l 4.3464,-13.0495 c -0.4689,-1.0812 0.4521,-2.242 -1.3405,0.0207 l -3.6802,5.7682 c -3.0084,4.6599 -7.2397,10.2294 -12.8435,11.9919 -3.3458,1.0526 -6.7777,2.4775 -10.2501,3.1876 l 3.009,-7.9316 c 3.6045,-0.271 2.4338,0.7418 6.4508,-1.2047 2.1693,-1.0514 4.339,-1.9157 5.8819,-2.8185 0.6942,-3.9308 -1.351,-5.6373 -2.7794,-9.01 -0.2262,-0.1851 -0.5678,-0.4144 -0.8317,-0.6882 -0.9127,-0.9456 -0.2115,-0.1987 -0.8356,-0.9944 l -3.5635,0.5752 c -1.1747,-3.5572 -6.1225,-7.5408 -6.9928,-10.7961 2.5566,-0.6624 8.3211,-1.4669 10.6212,-0.9119 1.6117,-1.7439 1.6721,-4.7582 -1.4219,-3.8126 -2.9687,0.9077 -3.0781,1.7493 -6.9313,1.2835 2.9866,-0.5533 5.1143,-4.8427 10.4746,-3.4344 3.7834,-5.3422 6.5523,-4.1545 10.573,-4.2993 1.0987,-2.5294 4.2276,-5.9239 6.3192,-7.7386 3.1825,-2.7592 6.628,-2.7244 11.3973,-2.8397 0.2041,-4.347 5.8343,-9.1432 7.971,-11.4242 6.8743,-7.3384 11.4316,-13.6486 17.3089,-22.0173 10.2901,-14.6517 18.5647,-42.7102 18.5097,-60.207 -0.0184,-5.7569 -0.5374,-14.1012 0.091,-19.5441 l 7.5932,-0.5439 c 1.0012,4.8756 3.4784,8.244 9.0595,8.6499 -5.5437,14.614 -4.6233,54.8957 -4.3605,74.0557 0.0941,6.8811 -0.7371,6.8431 -3.2602,12.3006 -1.7305,3.7432 -7.8769,17.2058 -11.2518,20.287 -2.5231,-3.8024 -2.8899,-6.0964 -0.5514,-8.3077 2.7633,-2.6142 3.5652,-4.1208 6.1158,-6.6153 l -2.6717,-6.7405 c 1.5971,-2.9412 5.5769,-6.0845 7.2111,-8.9781 -0.8019,-1.099 -1.4712,-2.0024 -2.5036,-3.3367 l -2.9429,-3.3627 c -2.5653,1.4901 -6.8865,7.2728 -10.0746,10.1979 -3.9376,3.6125 -6.4593,7.0004 -10.1174,10.6041 -4.1565,4.0941 -6.5438,6.6759 -9.9043,10.2722 -1.3172,1.41 -9.2044,9.6333 -10.3331,10.3258 -1.5197,-1.391 -3.1901,-1.9137 -5.4791,-2.6844 z M 9.5767589,394.5486 c -1.4664,-9.7849 17.5297001,-16.8769 30.6964001,-6.3946 3.0242,2.4077 6.1202,4.3129 7.2558,8.8358 1.5282,6.0866 -4.968,8.0558 -7.6603,5.0284 -0.9842,-1.1063 -2.0764,-3.3854 -3.121,-4.6462 -4.1581,-5.0188 -9.1474,-8.0626 -16.5963,-7.8347 -7.5756,0.2316 -8.007,4.4404 -10.5746001,5.0113 z M 402.07796,392.5542 c -2.3851,-1.3485 -2.7672,-5.0009 -10.859,-5.0542 -13.6417,-0.0904 -17.2162,10.5905 -19.4337,12.7347 -4.1769,4.0385 -15.2833,-2.9367 0.157,-14.3496 7.3794,-5.4538 16.4888,-6.7643 24.5767,-2.5835 2.3879,1.2348 7.5092,5.5216 5.559,9.2526 z M 8.3572589,386.0637 c -0.8036,-9.0326 12.4591001,-12.6998 20.0418001,-11.9183 8.0949,0.8357 18.9337,6.2218 21.3211,11.3457 -0.8411,1.4465 -1.6478,2.3927 -3.2559,3.0577 -3.4319,-4.0181 -9.6653,-8.4506 -17.4923,-9.2355 -11.9665,-1.1991 -16.7046,6.5511 -20.6147001,6.7504 z M 352.49036,345.9348 c 1.434,1.1162 1.3575,1.7501 2.6631,4.2046 3.9399,7.4092 7.2063,17.6683 7.8744,25.7218 0.2285,2.7542 -3.6405,5.1886 -4.8634,8.1774 1.2951,1.351 3.8897,4.0043 4.5601,5.6033 l -2.0988,4.1666 -8.2216,0.1718 0.01,-12.1119 z m 12.2255,40.5782 -2.7473,-2.9254 c 2.9514,-5.3543 12.89,-10.3535 21.0747,-11.4052 9.0253,-1.1602 21.1774,3.3585 20.4758,11.8409 -3.6867,-0.2248 -16.1532,-15.0987 -34.8015,-0.828 -1.8281,1.3989 -1.8624,2.3732 -4.0017,3.3177 z m -306.250301,-29.4857 -0.0337,39.5164 -7.0064,0.0952 c -0.6032,-2.8471 -1.7271,-3.232 -2.2561,-5.5375 1.7379,-1.6514 2.8851,-3.2303 4.5856,-5.0266 -1.008,-2.7224 -4.9167,-5.4669 -4.9572,-7.6978 -0.0292,-1.6186 1.7867,-9.4153 2.2036,-11.1793 2.0812,-8.8143 4.1794,-12.0486 7.8364,-18.7546 z m -35.1952,-12.17 c 1.5843,1.7938 4.6403,6.1421 5.237,8.2355 l -10.7121,10.8627 c -1.247,1.3507 -1.9316,2.4063 -3.354,3.4202 0.6041,-2.1313 3.5025,-7.306 4.5831,-9.4067 3.9342,-7.6488 1.2999,-3.388 0.5904,-10.3062 z m 365.424901,-2.1203 3.6165,2.7933 c -0.4156,6.7447 -3.5921,2.457 0.5201,10.4045 1.3411,2.5923 3.714,6.5928 4.599,9.3492 -1.5299,-0.9773 -13.0672,-13.2681 -13.9953,-14.9972 z M 7.8852589,218.5979 c -5.0436,-5.3016 -2.8352,-24.0732 1.2153,-29.4525 5.4870001,-7.2865 16.5206001,-7.2638 23.8002001,0.7316 -0.8733,2.2516 -3.1019,4.9558 -4.4626,7.183 -7.9812,0.6443 -10.7025,1.6027 -13.7327,7.5467 -1.7396,3.4123 -4.8475001,11.7334 -6.8202001,13.9912 z M 378.96966,187.8069 c 8.6754,-9.0542 19.7019,-6.9143 24.0054,-0.379 2.4628,3.74 3.3673,8.9799 3.7225,14.3507 0.2412,3.6513 0.8697,12.871 -3.316,14.7455 -1.2158,-3.6771 -4.5456,-10.8337 -6.3938,-14.3098 -2.9608,-5.567 -5.8249,-6.768 -13.5385,-7.2264 z M 56.903959,257.6721 c -0.3175,3.5736 -1.1962,7.5002 -1.3796,11.0911 -0.2299,4.5108 3.5872,2.3624 2.6813,7.6969 -0.5108,3.0068 -0.775,2.575 0.4309,4.8178 1.4799,2.7516 1.3541,12.0433 -0.0117,15.3978 -1.0102,2.484 -6.4012,14.7943 -6.4213,16.8806 -0.0343,3.6439 1.607,6.3094 0.0587,10.3637 -1.8576,4.8629 -1.129,3.9938 0.2922,8.9011 2.7131,-2.5602 -0.2324,1.3252 1.8936,-2.5855 l 4.3035,-7.6334 c 0.4071,4.3152 0.192,12.3324 -0.0294,16.8188 -0.1333,2.7029 -1.251,3.4234 -2.4319,5.614 -4.5456,8.4337 -8.727,22.0113 -10.2838,31.8036 -1.9712,-0.712 -3.7701,-1.9803 -6.0315,-2.8777 -10.3955,-4.1238 -12.5317,-2.971 -22.7849,-2.2204 0.5916,-1.6455 4.0768,-5.7974 5.2832,-7.2331 1.8405,-2.1895 3.3953,-4.4711 5.4076,-6.2689 2.0016,1.4193 4.0255,3.1663 5.9715,4.773 1.7592,1.4525 3.4773,3.7916 6.2606,3.5892 2.0696,-2.4338 7.7431,-18.9703 9.3713,-23.2007 1.9772,-5.1361 -0.6015,-7.4806 -3.4435,-10.6988 -2.3201,-2.6274 -4.3971,-5.3235 -9.318,-6.0894 -1.4797,0.7529 -1.3575,-1.0783 -1.2243,1.0231 4.1508,1.7983 11.5007,8.9036 9.5264,15.9528 -0.8589,3.0665 -5.4502,17.8574 -6.7468,19.6018 -1.7016,-0.4127 -3.7624,-2.4902 -4.9116,-4.0909 0.8269,-2.5733 3.305,-5.6549 3.5133,-8.28 -1.6815,-1.9738 -3.1711,-2.5875 -5.0505,-5.4559 -1.072,-1.6356 -3.3848,-4.6783 -3.7094,-6.3762 l -1.4975,-0.8623 c -0.1137,-0.0326 -0.2648,-0.0777 -0.3779,-0.0924 -1.0902,-0.1395 -1.0794,0.1258 -1.6741,0.5972 l -2.7669,2.4571 c -12.5062001,9.6749 0.9515,6.0894 -5.3451,16.3647 -1.7829,2.91 -3.5189,6.4176 -5.411,8.8313 -0.1738,-4.3231 1.1772,-10.3734 -0.5216,-14.0683 -1.8989001,-2.3287 -4.2687001,-1.0758 -4.7063001,1.8343 -0.8845,5.8819 4.7109001,19.7135 2.1682,22.8784 -1.3876,-6.7448 -2.3321,-14.5315 -3.3339,-21.4719 -0.7228,-5.006 -3.414,-15.9449 0.1469,-20.7422 -0.396,-3.1499 2.874,-14.9168 3.7088,-18.7787 1.7207001,-7.9585 2.4571001,-10.4071 5.6923001,-17.1139 4.9258,-10.2123 9.0944,-20.9191 13.4821,-31.5652 6.0616,-14.707 15.2465,-38.5324 11.3939,-54.8983 -1.9622,-8.3364 -5.7291,-10.3325 -8.1303,-14.1993 0.4938,-1.4111 1.8371,-3.5271 2.6495,-4.6927 1.6387,-2.3514 2.0744,-1.0752 4.1814,-2.5526 0.1766,-3.2431 -3.8838,-5.2614 -5.2597,-7.7624 0.7189,-1.5086 3.3588,-4.7254 4.7242,-5.696 2.6827,1.764 4.0091,4.1086 6.7465,5.8261 l 3.6595,-1.078 c 15.8341,18.051 13.5261,54.1148 9.2551,75.4707 z m 343.917901,46.7878 c 1.5004,1.6345 7.1714,29.5549 7.996,33.9619 0.6319,3.3786 -3.9064,31.7171 -4.9399,36.4462 -3.2261,-3.9716 4.8841,-19.3714 0.9711,-25.6621 -5.9332,-1.0763 -3.9863,5.2529 -4.0164,14.3484 -2.2113,-1.5213 -4.3469,-6.4967 -5.752,-8.8429 -5.3652,-8.9549 6.7453,-6.3703 -4.4453,-15.2121 -3.712,-2.9333 -2.7743,-3.4563 -5.6605,-3.5774 -1.4188,1.7045 -3.0263,4.4405 -4.4896,6.7465 -2.0236,3.1901 -3.3134,3.7182 -5.4771,6.0806 0.1803,2.6665 2.5665,5.4697 3.5059,8.2794 -1.135,1.6838 -2.7717,3.5941 -4.8988,4.1233 -1.0494,-1.5293 -6.3346,-17.4135 -6.9208,-20.0052 -0.7909,-3.496 1.192,-7.5356 2.8721,-9.915 2.3116,-3.2732 4.4368,-3.6125 7.056,-6.2876 -5.0647,-2.4718 -16.9858,9.3552 -14.4168,16.0444 1.4908,3.8818 7.7038,21.3814 9.5233,23.5593 3.399,0.2928 8.3186,-5.7589 12.3171,-8.3364 1.0392,0.7458 10.3065,11.8655 10.6543,13.6057 -8.6831,-1.5551 -14.6999,-1.1936 -22.7593,2.0897 -2.2182,0.9034 -4.1752,2.2323 -6.0455,2.8661 -1.0641,-6.3017 -5.1049,-21.1708 -7.5583,-26.2811 -1.4848,-3.094 -5.1106,-8.7165 -5.1894,-11.6254 -0.1051,-3.8776 -0.5187,-12.9841 0.0581,-16.3537 0.61,1.3544 2.0157,3.6825 2.7519,5.029 1.1821,2.1637 2.0163,4.1147 3.4109,5.2401 0.472,-2.0245 1.997,-4.9283 1.2439,-6.7896 -1.2773,-3.1569 -1.8947,-3.4911 -1.5211,-7.865 0.3416,-3.9994 1.2889,-4.0348 -0.3404,-7.8939 -2.8228,-6.6844 -6.6184,-13.9878 -6.4338,-20.5486 0.083,-2.9466 -0.2262,-6.4483 0.8796,-8.5215 1.6954,-3.1796 0.2279,-3.9093 0.2664,-7.5767 l 3.0767,-3.072 -1.5596,-12.9126 c -4.3135,-20.3774 -6.4502,-58.3651 9.3288,-75.5 l 3.6136,1.0605 c 2.5439,-1.4902 3.1459,-3.3469 6.7278,-5.749 1.487,1.1605 3.7865,3.7908 4.7069,5.6665 -1.3898,2.533 -5.3512,4.7083 -5.2736,7.7624 1.4511,1.0704 4.0165,0.2432 6.8641,7.2448 -2.6027,4.1031 -5.0354,5.2815 -7.3165,11.4018 -6.8093,18.2679 8.6636,54.521 16.297,71.6247 1.6118,3.6119 10.7575,23.5173 10.8932,25.3465 z M 22.069859,176.3342 c -1.853,-2.3799 -3.9421,-2.5976 -5.8816,-5.9984 1.9247,0.652 5.6843,3.2491 7.6604,4.4791 l 7.3584,5.2293 c -0.4793,0.8773 -0.2225,0.6418 -1.0752,1.6852 -0.6888,0.8442 -0.5377,0.6058 -1.1687,1.1523 -2.8678,-0.5925 -5.1134,-1.893 -8.2641,-2.0367 -3.9821,-0.1814 -5.5009,1.2475 -9.0193,1.4723 1.0519,-5.3719 8.4864,-5.1664 10.3901,-5.9831 z m 358.594001,1.6404 c 1.1191,-1.3365 2.1135,-1.7847 3.6338,-2.7728 2.7204,-1.7697 8.8154,-5.9009 11.1007,-6.6776 -0.7475,1.5452 -1.127,1.8476 -2.7076,3.1844 -1.1288,0.9548 -2.0501,1.5072 -2.8531,2.5646 1.2903,0.6094 11.1044,1.4368 9.9383,6.0964 -11.033,-1.7728 -3.4209,-3.033 -16.8458,0.5261 -1.2486,-0.9912 -1.4088,-1.5757 -2.2663,-2.9211 z M 33.744059,177.012 c -3.3559,-0.4847 -10.5451,-5.6336 -13.4283,-7.4665 -4.6641,-2.9644 -8.5901,-4.8299 -10.1009,-10.862 10.2163,2.8893 23.5269,13.9583 25.6124,15.0318 -0.7132,1.8108 -1.2084,1.8615 -2.0832,3.2967 z m 342.439701,-4.7302 c 2.7028,-4.3696 21.1272,-14.3612 25.448,-15.641 -1.1083,5.7796 -5.709,8.0589 -10.0344,10.8649 -2.7657,1.7941 -10.1701,6.9027 -13.3905,7.4685 z m 12.1215,-17.4056 17.9881,-9.2667 c -2.132,9.7325 -4.0768,6.3006 -19.3292,15.7028 -13.8158,8.5167 -13.3954,11.0959 -19.0369,15.4692 -0.7535,-0.7021 -1.7382,-1.4944 -2.4211,-2.4338 2.1303,-5.0944 13.4629,-13.5615 18.1423,-16.8574 l -1.6418,-0.1539 c -5.5913,2.6093 -11.9633,9.4196 -16.344,13.7259 -20.7666,20.418 -16.2136,42.6992 -16.1887,73.1518 l 0.3357,118.5071 c 0.0306,7.4569 0.6417,53.9553 -0.2163,59.2637 -0.8901,5.504 -2.374,11.1866 -3.0447,16.374 -4.3793,14.5996 -4.7245,19.8584 -13.3041,34.0637 -8.4294,13.9558 -20.7896,28.5843 -33.9118,36.9916 -11.5166,7.378 -34.7482,18.6383 -47.6793,22.392 0.3235,1.5987 14.6651,18.2239 17.0878,21.871 -1.0145,3.287 -2.4998,6.26 -3.7332,9.3846 -1.258,3.1864 -3.1289,4.1049 -8.5266,5.3068 1.1205,-7.7449 1.9823,-10.0004 -1.724,-16.4186 -1.3771,-2.3856 -6.9007,-10.6775 -7.2352,-12.1467 -0.5825,-0.4584 -0.4223,-0.2611 -0.9558,-0.8331 -0.2447,-0.2622 -0.2713,-0.3198 -0.4864,-0.5996 -0.2563,-0.3339 -0.4862,-0.7489 -0.8113,-1.2401 -0.6925,-1.0466 -1.2762,-1.827 -2.0622,-2.7751 -12.1479,0.5096 -17.9124,3.471 -16.5243,16.5189 4.57,10.1956 12.8979,0.5964 13.4592,0.3458 6.1194,4.4881 6.9806,16.6875 -0.3076,15.1387 -2.2975,-0.4884 -4.3061,-2.5115 -6.0301,-3.2633 1.1214,4.0805 2.8499,9.3124 -1.4885,11.7658 -2.6473,1.497 -4.3676,0.1468 -5.8884,-1.309 -1.0228,-0.9794 -1.1798,-1.0245 -1.9247,-2.2074 -0.9108,-1.4459 -0.6809,-1.6001 -2.1045,-2.8749 0.1707,18.5755 -10.7141,14.8232 -15.6631,3.1386 -0.7634,0.7645 -0.2523,-0.0576 -1.097,1.4357 -1.3357,2.3624 -3.5422,9.0343 -9.5148,8.6596 -2.9273,-0.184 -4.9172,-2.0861 -5.6832,-4.2461 -1.1089,-3.1274 -0.1981,-6.1055 -0.0909,-9.2721 -2.3168,2.4517 -5.3238,10.0803 -10.8987,7.3321 -6.4465,-3.1771 -0.4493,-11.2036 0.2047,-12.935 -2.869,1.2676 -5.0653,4.8957 -9.9329,4.0821 -4.2401,-3.1623 -1.7541,-14.2327 3.234,-14.9992 1.3519,1.5006 1.643,3.7156 3.7148,4.3685 2.3128,0.7285 5.421,-0.4346 7.0266,-1.3162 4.4387,-2.4375 3.0483,-7.8962 1.8453,-12.9846 -2.05,-2.7187 -3.4804,-6.6878 -12.7261,-6.8341 -4.572,-0.072 -6.3431,3.3784 -8.3455,6.7845 -0.277,0.4714 -0.7702,1.3039 -1.0026,1.6021 -0.0709,0.0916 -0.1803,0.2242 -0.2486,0.305 l -0.5899,0.5814 c -0.0482,-0.0924 -0.2132,0.1919 -0.3226,0.284 -0.5491,4.1766 -12.2788,16.0336 -6.2847,25.532 l -7.5759,-1.8596 -5.155,-13.996 c 2.531,-2.6002 4.6139,-5.4459 6.8547,-8.1318 1.2353,-1.4802 5.5267,-6.9043 6.8836,-7.9208 0.0414,-0.0312 0.1656,-0.1117 0.2523,-0.1607 0.8711,-2.4546 3.1076,-3.6244 4.0071,-5.9772 -4.318,-1.4269 -7.9024,-2.1617 -12.1479,-3.7307 -12.8441,-4.7449 -29.795,-13.8344 -40.919,-21.7043 -10.690801,-7.5639 -9.706901,-8.6196 -16.379401,-14.6676 -11.397,-10.3294 -22.2043,-34.2311 -26.7885,-51.3904 -4.9142,-18.3951 -3.581,-38.8845 -3.5609,-58.5808 0.0218,-21.0931 0.5709,-41.2364 0.6528,-62.0997 0.0819,-20.8721 0.1571,-41.7444 0.1984,-62.6167 0.0216,-10.5296 0.0417,-21.0371 0.009,-31.5678 -0.0666,-20.9744 0.8765,-32.4218 -12.969,-49.407 l -7.7281,-7.7828 c -2.5019,-2.1385 -5.8323,-5.1562 -8.826,-6.8142 l -0.5953,-0.0417 -0.8753,0.2543 c 4.1312,2.5622 13.1227,10.5403 15.0616,14.6466 -1.5763,1.8623 -0.7965,1.4301 -2.4511,2.2535 -5.3938,-3.6765 -8.6876,-11.1931 -30.3421,-21.6054 -3.6343001,-1.7472 -6.9426001,-1.5114 -7.9242001,-9.5519 l 16.7737001,8.8577 c -0.5068,-1.4235 -1.3325,-1.3765 -4.5054,-3.039 0.148,-5.2223 -0.5048,-8.7868 -0.4901,-13.674 0.0122,-4.2237 0.3733,-9.2767 0.0879,-13.3351 -0.8294,0.745 -0.4768,0.4913 -1.1296,1.308 -0.4638,0.5808 -0.5451,0.6743 -0.9099,1.1534 L 4.2869589,143.4399 c -0.8394,1.2529 -0.7209,1.3444 -1.6719,2.3757 0.0751,0.0978 0.1786,0.2327 0.2194,0.2987 l 3.5728,8.3342 c 0.1893,0.468 0.369,0.7951 0.5383,1.5486 0.3435,1.5281 0.2231,-0.0505 0.2072,2.0545 0.3489,0.415 0.0813,-0.1505 0.5355,0.7529 0.5139,1.0219 0.0898,0.2066 0.4382,1.0573 l 3.4979001,8.947 c 3.4186,9.6744 2.4852,4.9442 -2.8230001,13.3912 -1.6163,2.5721 -2.7847,5.3452 -3.6448,8.3383 -2.6124,9.0956 -4.35850003,20.0149 -0.5176,29.2499 0.6387,1.5364 1.0267,1.6722 1.3989,3.4155 3.1765,-0.7739 3.75,-4.8189 11.7851001,-10.2717 5.7191,-3.8806 10.5293,-3.8483 15.5126,1.0404 1.0774,1.0567 1.0658,0.8319 1.8439,2.2243 l 0.6914,1.3672 c 0.5539,1.182 0.3943,0.712 0.6602,1.8876 1.7572,7.7623 -0.3065,15.7631 -2.5336,22.6748 l -8.2656,23.285 c -0.0419,0.1227 -0.0921,0.2579 -0.1363,0.379 -0.044,0.121 -0.0916,0.2585 -0.1375,0.3781 l -7.0954,17.2225 c -1.5863,4.7766 -4.0391,8.992 -5.94,13.723 -0.3881,0.9664 -0.3972,1.1478 -0.7195,1.8502 -0.2347,0.5114 -0.3282,0.6307 -0.7174,1.3683 l -2.2175001,4.4901 c -1.6172,3.3117 -1.8491,6.9398 -2.6473,10.3325 l -6.00320003,25.0246 c -1.0429,4.9436 5.15310003,29.6019 6.30590003,37.2189 0.9136,6.0369 -3.9863,12.8075 2.0554,21.2899 l 0.5301,0.638 c 0.0615,0.076 0.1899,0.2135 0.2891,0.3161 3.0218001,-0.6418 4.8223001,-3.1558 8.0283001,-3.9314 3.833,-0.9266 7.4721,-0.6845 10.5815,0.2489 1.6293,0.489 2.8811,0.9919 4.238,1.9211 l 6.342,6.0295 c 1.3215,1.3264 1.3581,2.5305 3.3384,2.9821 -1.0605,0.4836 -0.8555,-0.1296 -0.8918,1.2194 -0.0255,0.9358 3.3123,10.2824 3.3692,16.1754 0.0349,3.6244 0.097,7.2794 0.1639,10.9051 0.0635,3.4113 0.6185,6.8738 0.3121,10.7507 -0.4008,5.0721 -0.2543,36.7733 0.5771,43.0659 0.2336,1.7672 9.9788,21.447 12.566,26.3294 l 0.989,1.6245 c 3.2003,5.0355 10.4017,18.9394 14.6081,21.6972 l 25.2518,14.5792 c 0.8802,0.5496 -0.0833,0.0167 0.9533,0.6151 l 2.673701,1.4783 c 0.9187,0.5709 -0.0287,0.0411 0.968,0.6035 0.7019,0.396 1.3527,0.6723 2.0123,1.0768 l 1.5903,1.0024 c 5.4833,3.0829 12.8556,4.7004 18.8914,6.5052 l 17.8067,5.4697 c 4.2761,1.4066 12.6326,3.0243 15.8709,5.2915 1.8825,1.3178 3.4314,3.63 5.5999,5.2767 1.5103,1.1466 1.6631,1.4845 3.1844,2.5072 l 6.7266,4.1457 c 6.0358,3.685 13.5904,6.1917 20.6218,7.4024 1.8666,0.3217 3.1717,0.5111 5.0975,0.6352 5.372,0.3447 4.5176,0.5244 9.8779,-0.074 2.0194,-0.225 3.0512,-0.2874 5.0366,-0.6466 11.3117,-2.0488 21.9249,-6.7546 30.1218,-14.464 0.3382,-0.3178 0.9023,-0.8099 1.3674,-1.1741 l 2.9957,-2.7267 c 0.4705,-0.523 0.2492,-0.324 0.7112,-0.8484 0.0703,-0.0799 0.1639,-0.2021 0.2356,-0.2803 0.072,-0.0788 0.176,-0.1914 0.2497,-0.2673 0.0734,-0.0763 0.1817,-0.1851 0.2574,-0.2591 1.4601,-1.4216 2.7224,-2.3874 4.7772,-2.9407 1.2952,-0.3484 1.258,-0.3447 2.3613,-0.7217 2.6348,-0.9008 5.8646,-1.8723 8.6329,-2.7584 5.6316,-1.802 11.4687,-3.7088 16.8109,-5.4442 l 8.2941,-2.5892 c 1.0599,-0.3563 0.9479,-0.3208 1.946,-0.6403 3.3027,-1.0582 6.4264,-2.9407 9.3731,-4.6069 l 11.3876,-5.6764 c 4.7676,-2.0933 16.7456,-8.8106 21.1459,-12.0035 1.413,-1.0265 1.7022,-1.7604 2.5888,-3.1442 l 8.8285,-13.4229 c 3.8115,-5.724 7.0609,-11.2751 10.4372,-17.5145 2.5756,-4.7602 4.8226,-9.9212 7.2576,-15.0165 2.0976,-4.3883 1.1401,-3.6091 1.0207,-8.8546 -0.085,-3.7375 -0.0397,-7.6507 -0.0334,-11.4018 0.0107,-7.4177 -0.002,-14.8354 -0.0153,-22.2525 -0.019,-10.7958 0.5921,-20.986 2.6532,-30.9753 0.4297,-2.0829 1.3819,-4.6874 1.5372,-6.8536 0.0697,-0.9712 -0.4714,-2.564 -0.5513,-2.7114 7.9035,-6.4207 9.6919,-14.4552 24.0012,-11.4448 4.089,0.8606 5.7192,2.9307 8.6139,4.4067 0.8368,-2.2762 1.9548,-3.6856 2.7321,-6.0633 0.9878,-3.0186 1.1327,-4.2466 0.8742,-7.9648 -0.6866,-9.8595 -1.9004,-3.4741 0.3288,-15.1636 0.9663,-5.0664 1.8825,-9.618 2.8426,-14.7272 3.8239,-20.3519 2.4321,-12.5917 -0.8606,-29.2498 -0.55,-2.78 -1.048,-4.7206 -1.6654,-7.1385 l -2.9027,-12.1071 c -0.0496,-0.1649 -0.2004,-0.6366 -0.2579,-0.7957 l -9.7674,-22.354 c -0.3563,-0.8832 -0.9436,-2.2535 -1.396,-3.2573 -0.3776,-0.8373 -0.3796,-0.8447 -0.6123,-1.451 -0.0459,-0.1179 -0.0913,-0.258 -0.1369,-0.3765 l -4.4626,-10.5667 c -0.6693,-1.4802 -0.5343,-1.69 -1.0103,-3.1013 l -6.0352,-16.1966 c -0.5995,-1.5849 -0.5312,-1.2238 -1.0673,-3.0566 -3.1671,-10.8261 -10.4436,-29.6405 3.7231,-35.7075 4.3982,-1.8836 9.5612,0.5612 12.8075,3.5104 2.3544,2.1385 4.9317,3.9436 6.813,6.6059 1.0038,1.4204 1.2476,1.6058 2.6881,2.2853 6.1515,-9.7056 4.2823,-21.7551 1.5288,-32.2002 -0.2353,-0.8918 -0.5658,-1.811 -0.9369,-2.7204 -0.3325,-0.8147 -0.1981,-0.4816 -0.5825,-1.4695 l -0.2795,-0.7565 c -0.0635,-0.1511 -0.2597,-0.5758 -0.328,-0.722 l -2.8967,-4.9476 c -2.5744,-3.8044 -4.7534,-3.604 -2.8658,-8.1493 0.2089,-0.5043 0.4235,-1.0446 0.5947,-1.4647 l 3.3261,-8.6156 c 0.495,-1.1747 0.7115,-1.709 1.264,-3.3741 l 4.0023,-9.972 c 1.7682,-4.3268 -1.3026,-6.7765 -5.2303,-11.9565 -1.8929,-2.4974 -6.3657,-9.4842 -8.8829,-10.7391 0.0502,4.5488 0.1573,9.0899 0.1437,13.6522 -0.0127,4.4025 -0.7421,8.7769 -0.5196,13.2775 -1.724,1.1166 -2.9386,2.1574 -5.2259,2.4398 -0.5377,1.0318 -0.0746,0.3895 -0.1301,1.5281 z m -103.3727,374.6787 c -1.1455,-3.8135 1.6687,-5.559 3.6354,-3.6417 1.9052,1.8581 0.3529,4.8464 -3.6354,3.6417 z m -0.3235,-6.5339 c -6.2342,3.4118 -1.2424,11.615 4.3464,8.659 5.6483,-2.9868 1.2152,-11.7028 -4.3464,-8.659 z m 13.5967,9.0703 c -3.5096,-0.5054 -2.6062,-2.0676 -2.7865,-5.8705 -0.1462,-3.0733 0.9151,-3.9345 3.6941,-4.2639 0.3277,3.4424 -0.0433,7.2428 -0.9076,10.1344 z m 1.6889,3.0257 c 0.0535,-2.1019 1.0193,-4.7163 1.2254,-7.3145 0.2336,-2.9472 -0.0714,-6.131 -0.2432,-8.7117 -2.8403,0.0275 -5.3459,1.7226 -7.295,3.1532 0.1211,6.7663 -0.94,11.9274 6.3128,12.873 z M 43.970359,305.8707 c -3.5394,-5.3889 -2.2411,-5.5584 -9.4377,-3.6881 l 2.5481,-5.7337 c 4.9833,-0.5411 6.383,2.3695 7.9118,5.6243 1.9153,-2.1949 0.6386,-4.0726 0.4209,-6.6396 -0.2205,-2.5966 4.9558,-18.3107 5.8017,-19.5951 l 3.1612,2.9534 c -0.7798,4.083 -7.9206,25.6187 -10.406,27.0788 z m -5.6923,-11.8148 c 1.1053,-5.3365 4.2769,-11.9596 5.8845,-17.5895 1.6543,-5.7943 3.348,-11.7794 5.0791,-17.6789 1.6418,0.7487 1.6203,1.289 2.9979,2.5042 0.0326,8.2185 -6.2141,24.4822 -8.2995,32.5718 -2.6961,-0.5412 -2.9699,-0.4128 -5.662,0.1924 z M 355.12036,286.181 c 0.9762,-1.4536 1.1644,-2.1113 2.4528,-2.9222 1.5851,2.4369 5.9468,17.922 10.4683,25.4511 1.9681,-2.8324 2.6816,-7.0143 7.1312,-7.2142 3.9948,-0.1797 7.1152,4.3586 6.116,8.3254 -2.384,0.4558 -2.6688,-0.239 -4.5629,0.004 -1.5373,0.1961 -2.1002,1.1409 -3.1434,1.6251 -1.0196,0.4731 -5.8433,1.008 -7.8389,1.6577 z m 2.4542,-9.3645 2.9778,-3.1459 c 0.9547,1.4315 6.0046,17.2791 5.9508,19.1868 -0.0794,2.7913 -1.6314,4.6579 0.3736,7.1561 1.4284,-3.2017 2.9973,-6.224 7.774,-5.5327 l 2.8996,5.6126 c -7.9543,-1.9919 -6.0645,-1.2566 -9.7558,3.9124 -2.7425,-2.4094 -8.8211,-21.9872 -10.22,-27.1893 z m 2.0738,-17.595 c 1.4247,-1.2469 1.3147,-1.6633 2.9668,-2.4675 1.9564,5.9887 3.4021,12.141 5.218,18.0564 1.6662,5.4272 4.6409,11.9055 5.7521,16.9449 l -5.6591,0.0661 c -2.0384,-7.7786 -8.4204,-24.8179 -8.2778,-32.5999 z m -0.53,-2.3411 c -1.7711,3.5617 -1.5336,1.3246 -0.5837,6.5682 0.464,2.5579 1.3944,5.5014 1.1358,8.1926 -1.1083,1.8 -3.6453,3.2293 -3.5169,5.5616 0.0969,1.7708 0.9533,2.0152 0.1794,4.0054 -0.4118,1.0579 -1.745,1.9386 -2.3096,2.9418 -1.5078,2.6753 8.2746,23.3827 9.9408,27.1581 2.4828,5.6251 -4.22,7.2559 -0.1967,15.5872 1.9987,-1.023 1.9698,-1.8899 3.9648,-2.8579 0.5544,-1.4785 0.9615,-1.0641 1.4646,-2.4063 2.3304,-6.2255 -1.9956,-7.0773 7.7338,-9.3799 1.7674,-0.4186 10.4321,1.9211 5.2648,-7.7961 -3.5646,-6.7045 -6.5154,-13.0739 -9.1273,-20.3357 -1.8434,-5.1234 -3.49,-9.3762 -5.0882,-14.58 -0.7415,-2.4126 -3.0838,-13.4473 -4.7143,-15.2028 -2.3391,0.7517 -2.3369,1.9814 -4.1473,2.5438 z m -231.7417,274.2049 c -2.5971,1.1021 -5.8226,-0.0879 -4.0286,-3.0112 1.1883,-1.9364 5.2492,-1.8301 4.0286,3.0112 z m -3.5776,-6.4806 c -6.4587,2.9302 -2.039,11.2593 3.5989,9.008 5.6165,-2.2425 2.5072,-11.778 -3.5989,-9.008 z M 17.802359,331.5339 c 1.2738,3.085 0.03,7.0784 -3.3242,4.8328 -2.0705,-1.3861 -1.8913,-6.0381 3.3242,-4.8328 z m -6.1132,0.6211 0.2332,4.5805 c 4.4615,6.9457 10.067,1.9791 9.8788,-2.4718 -0.1083,-2.5713 -2.0446,-4.8311 -4.2871,-5.1568 -3.3837,-0.4915 -4.2052,1.6838 -5.8249,3.0481 z M 355.95056,160.8454 c -0.7727,3.7987 -2.2181,14.2926 0.0703,17.1134 1.6025,-0.4627 1.5639,-1.0129 2.9172,-2.778 l 8.1586,-8.8979 c 1.7212,-1.7218 10.2158,-8.1477 12.5697,-9.6781 0.2211,-4.9039 -0.6962,-10.4153 -0.4932,-15.8899 0.1814,-4.8946 0.0572,-10.612 -1.995,-14.4198 -2.7958,-5.1849 -14.7444,-11.5098 -21.4458,-3.6924 3.5254,3.1654 16.2294,6.2039 6.3873,24.7286 -2.2366,4.2088 -5.1662,8.5833 -6.1691,13.5141 z"
     style="fill:#9b9d9f;fill-rule:evenodd"
     id="path10" />
  <path
     d="m 161.44236,264.7828 -3.5263,-0.9969 9.2477,-31.4215 c 1.6625,1.3759 1.2254,1.98 3.1754,3.4339 -0.1194,2.3105 -7.6533,26.9365 -8.8968,28.9845 z M 43.021059,106.6416 v 1.196 h 14.612 v -4.5882 h -14.612 v 1.1959 h -2.1022 v -4.958 h 2.1022 v 1.1959 h 14.612 l 2.1016,1.87 v 5.8499 l -2.1016,2.0007 h -14.612 v 1.1959 h -2.1022 v -4.9581 z m -2.2822,-12.5342 10.9743,-3.6533 h -8.8721 v 1.3918 h -2.1022 v -5.1318 h 2.1022 v 1.1525 h 16.7139 v 2.5875 l -12.1465,4.0448 h 10.0446 v -1.196 h 2.1019 v 4.9581 h -2.1019 v -1.1959 h -14.612 v 1.1959 h -2.1022 z m 16.7301,-8.377 v -1.1959 h -14.6121 v 1.1959 h -2.1021 v -4.958 h 2.1021 v 1.1959 h 14.6121 v -1.1959 h 2.1019 v 4.958 z m -14.5746,-11.404 v 1.1525 l 10.7923,-2.0874 V 73.1959 L 42.894359,71.13 v 1.1308 h -2.1019 v -4.9581 h 2.1019 v 1.283 l 16.7139,3.2618 v 2.8922 l -16.7139,3.24 v 1.2832 h -2.1019 v -4.9365 z m 8.2085,-14.5384 v 1.5875 h 6.5279 v -2.8486 h -2.8499 v -2.2836 h 4.9518 v 8.8725 h -2.1019 v -1.1526 h -14.612 v 1.1741 h -2.1019 v -8.7199 h 4.8504 v 2.2833 h -2.7485 v 2.6748 h 5.9819 V 59.788 h -1.3943 v -2.4573 h 4.79 v 2.4573 z m 6.124,-5.2781 -12.3919,-7.7431 -0.6339,1.0143 -1.7824,-1.1138 3.6184,-5.7909 2.831,-0.5644 6.0848,3.8022 0.7643,2.3238 6.3725,0.2897 0.5876,-0.9405 1.7825,1.1137 -2.6847,4.2968 -1.7824,-1.1138 0.6222,-0.9958 -6.1096,-0.2534 -0.4266,0.6823 4.5077,2.8168 0.7259,-1.1617 1.7825,1.1138 -2.7193,4.3523 -1.7824,-1.114 z m -11.0322,-9.9192 6.0846,3.8018 1.3022,-2.0838 -6.0845,-3.8018 z m 14.3793,-0.3062 2.4469,-0.8424 0.9278,2.6943 3.2695,-1.1256 -2.1515,-6.2487 -4.7033,0.6361 -1.8487,-1.0948 -1.7697,-5.1403 1.207,-2.6388 4.462,-1.5364 2.4525,1.3785 0.8949,2.5988 -2.406,0.8283 -0.8946,-2.5988 -3.2695,1.1259 1.6186,4.7007 4.6964,-0.6551 1.7552,0.9559 2.3624,6.8601 -1.0842,2.5965 -4.462,1.5361 -2.5756,-1.3359 z m 11.2113,0.358 h 1.196 v -14.612 h -1.196 v -2.1019 h 4.9581 v 2.1019 h -1.1959 v 14.612 h 1.1959 v 2.1019 h -4.9581 z m 8.8444,0 v -14.612 h -1.1956 v -2.1019 h 7.1325 l 1.9789,2.1019 v 14.612 l -1.7833,2.1019 h -7.3281 v -2.1019 z m 2.5665,-14.612 v 14.612 h 2.7615 v -14.612 z m 6.5393,14.612 h 1.1741 l 3.0665,-14.612 h -0.8048 v -2.1019 h 4.9581 v 2.1019 h -0.7826 l 3.044101,14.612 h 1.0874 v 2.1019 h -4.610001 v -2.1019 h 1.2829 l -0.7829,-3.6782 h -3.4359 l -0.7611,3.6782 h 1.2178 v 2.1019 h -4.6536 z m 4.6536,-5.8002 h 2.5225 l -1.2614,-6.0633 z m 9.040201,5.8002 v -14.612 h -1.1959 v -2.1019 h 7.1328 l 1.9789,2.1019 v 14.612 l -1.7833,2.1019 h -7.3284 v -2.1019 z m 2.5663,-14.612 v 14.612 h 2.7615 v -14.612 z m 11.9976,14.612 h 1.1741 l 3.0665,-14.612 h -0.8047 v -2.1019 h 4.958 v 2.1019 h -0.7826 l 3.0441,14.612 h 1.0874 v 2.1019 h -4.61 v -2.1019 h 1.283 l -0.783,-3.6782 h -3.4356 l -0.7613,3.6782 h 1.2177 v 2.1019 h -4.6536 z m 4.6536,-5.8002 h 2.5229 l -1.2617,-6.0633 z m 12.8024,-8.8118 h -1.1956 v 14.612 h 4.5878 v -14.612 h -1.1956 v -2.1019 h 4.9581 v 2.1019 h -1.196 v 14.612 l -1.8703,2.1019 h -5.8495 l -2.001,-2.1019 v -14.612 h -1.196 v -2.1019 h 4.9581 z m 11.3023,14.612 h 1.196 v -14.612 h -1.8703 v 2.7485 h -2.2834 v -4.8504 h 10.8732 v 4.8504 h -2.2833 v -2.7485 h -1.8703 v 14.612 h 1.3918 v 2.1019 h -5.1537 z m 17.4342,-14.612 v 14.612 l -1.8918,2.1019 h -4.7191 l -1.9789,-2.1019 v -14.612 l 1.9789,-2.1019 h 4.7191 z m -2.5659,14.612 v -14.612 h -3.4795 v 14.612 z m 7.8877,-16.7139 3.6533,10.9743 v -8.8724 h -1.3918 v -2.1019 h 5.1318 v 2.1019 h -1.1526 v 16.7139 h -2.5874 l -4.0448,-12.1464 v 10.0445 h 1.196 v 2.1019 h -4.9581 v -2.1019 h 1.1959 v -14.612 h -1.1959 v -2.1019 z m 17.0648,2.1019 v 14.612 l -1.8921,2.1019 h -4.7188 l -1.9789,-2.1019 v -14.612 l 1.9789,-2.1019 h 4.7188 z m -2.5662,14.612 v -14.612 h -3.4792 v 14.612 z m 10.0625,-1.273 -2.501,-9.7821 v 11.0551 h 1.1962 v 2.1019 h -5.0236 v -2.1019 h 1.2181 v -14.612 h -1.2181 v -2.1019 h 4.8277 l 1.5877,6.8312 1.6308,-6.8312 h 4.8058 v 2.1019 h -1.1959 v 14.612 h 1.1959 v 2.1019 h -5.0233 v -2.1019 h 1.1963 V 33.5874 l -2.5011,9.7821 z m 7.6918,1.273 h 1.1744 l 3.0662,-14.612 h -0.8048 v -2.1019 h 4.9581 v 2.1019 h -0.7826 l 3.0441,14.612 h 1.0874 v 2.1019 h -4.61 v -2.1019 h 1.2829 l -0.7829,-3.6782 h -3.4356 l -0.7614,3.6782 h 1.2178 v 2.1019 h -4.6536 z m 4.6536,-5.8002 h 2.5228 l -1.2617,-6.0633 z m 16.6734,5.8002 v -14.612 h -1.1959 v -2.1019 h 7.1328 l 1.9788,2.1019 v 14.612 l -1.7835,2.1019 h -7.3281 v -2.1019 z m 2.5662,-14.612 v 14.612 h 2.7615 v -14.612 z m 11.9106,8.0841 h -1.5874 v 6.5279 h 2.8485 v -2.8496 h 2.2836 v 4.9515 h -8.8724 v -2.1019 h 1.1526 v -14.612 h -1.1744 v -2.1019 h 8.7202 v 4.8504 h -2.2833 v -2.7485 h -2.6748 v 5.9822 h 1.5874 v -1.3946 h 2.4574 v 4.79 h -2.4574 z m 20.196,6.5279 v -14.612 h -1.1959 v -2.1019 h 7.1328 l 1.9789,2.1019 v 5.3357 l -1.6093,1.7379 1.6093,1.6574 v 5.881 l -1.7833,2.1019 h -7.3284 v -2.1019 z m 2.5662,-14.612 v 6.1642 h 2.7615 v -6.1642 z m 0,8.2862 v 6.3258 h 2.7615 v -6.3258 z m 6.4741,6.3258 h 1.1741 l 3.0665,-14.612 h -0.8048 v -2.1019 h 4.9581 v 2.1019 h -0.7826 l 3.0441,14.612 h 1.0874 v 2.1019 h -4.61 v -2.1019 h 1.2829 l -0.7829,-3.6782 h -3.4359 l -0.7611,3.6782 h 1.2178 v 2.1019 h -4.6536 z m 4.6536,-5.8002 h 2.5228 l -1.2617,-6.0633 z m 12.8024,5.8002 v -14.612 h -1.1959 v -2.1019 h 4.9362 v 2.1019 h -1.1526 v 14.612 l -1.9136,2.1019 h -3.6315 l -2.0007,-2.1019 v -2.8496 h 2.5878 v 2.8496 z m 4.7562,0 h 1.1744 l 3.0666,-14.612 h -0.8051 v -2.1019 h 4.9581 v 2.1019 h -0.7826 l 3.0444,14.612 h 1.0871 v 2.1019 h -4.61 v -2.1019 h 1.2832 l -0.7829,-3.6782 h -3.4359 l -0.7614,3.6782 h 1.2178 v 2.1019 h -4.6537 z m 4.6537,-5.8002 h 2.5228 l -1.2614,-6.0633 z m 19.1959,7.9021 -1.9788,-2.1019 v -14.612 l 1.9788,-2.1019 h 4.5448 l 1.8703,2.1019 v 2.7485 h -2.5875 v -2.7485 h -3.2621 v 14.612 h 3.2621 v -2.8496 h 2.5875 v 2.8496 l -1.8703,2.1019 z m 7.4965,-2.1019 h 1.1741 l 3.0666,-14.612 h -0.8048 v -2.1019 h 4.9581 v 2.1019 h -0.7827 l 3.0442,14.612 h 1.0873 v 2.1019 h -4.61 v -2.1019 h 1.283 l -0.7829,-3.6782 h -3.4359 l -0.7611,3.6782 h 1.2178 v 2.1019 h -4.6537 z m 4.6537,-5.8002 h 2.5225 l -1.2614,-6.0633 z m 12.3457,-8.8118 h -1.1741 v 14.612 h 2.4137 v -2.8496 h 2.5659 v 4.9515 h -8.7418 v -2.1019 h 1.196 v -14.612 h -1.196 v -2.1019 h 4.9363 z m 5.4992,14.3212 1.131,0.3895 4.7571,-13.8161 -1.131,-0.3892 0.6846,-1.9876 4.6879,1.6143 -0.6843,1.9874 -1.131,-0.3892 -4.7571,13.8158 1.1307,0.3894 -0.684,1.9874 -4.6879,-1.6143 z m 15.5736,3.1368 -0.8417,-1.3462 -5.5357,3.4592 0.7375,1.1803 -1.7827,1.1137 -2.7195,-4.352 1.7824,-1.114 0.6338,1.0142 12.3917,-7.7431 -0.6336,-1.0142 1.7825,-1.1138 4.6097,7.3766 -4.1137,2.5702 -1.2101,-1.9363 2.3309,-1.4565 -1.4173,-2.2683 -5.0731,3.17 0.8413,1.3465 1.1826,-0.7393 1.3138,2.1025 -4.0623,2.5384 -1.3138,-2.1025 z m 11.0205,15.5055 h -14.612 l -2.1017,-1.8921 v -4.7188 l 2.1017,-1.9789 h 14.612 l 2.1022,1.9789 v 4.7188 z m -14.612,-2.5659 h 14.612 v -3.4795 h -14.612 z m -0.0278,5.0752 h 14.612 v -1.196 h 2.1022 v 6.8284 l -2.1022,1.9789 h -7.1745 l -1.8794,-1.5659 -5.5581,3.1314 v 1.109 h -2.1016 v -5.0667 h 2.1016 v 1.1744 l 5.3152,-3.0226 v -0.8047 h -5.3152 v 1.3697 h -2.1016 v -5.1319 h 2.1016 z m 14.612,2.5662 h -7.1745 v 2.457 h 7.1745 z m 2.0092,12.1135 -10.9743,3.6533 h 8.8721 v -1.3918 h 2.1022 v 5.1319 h -2.1022 v -1.1526 h -16.7139 v -2.5875 l 12.1465,-4.0447 h -10.0446 v 1.1959 h -2.1019 v -4.9581 h 2.1019 v 1.196 h 14.612 v -1.196 h 2.1022 z m -16.6983,8.5791 v 1.1959 h 14.612 v -1.1959 h 2.1022 v 4.9581 h -2.1022 v -1.196 h -14.612 v 1.196 h -2.1019 v -4.9581 z m 0.0374,6.2215 v 1.1744 l 14.612,3.0665 v -0.805 h 2.1022 v 4.958 h -2.1022 v -0.7826 l -14.612,3.0444 v 1.0871 h -2.1016 v -4.61 h 2.1016 v 1.2832 l 3.6785,-0.7829 v -3.4359 l -3.6785,-0.7613 v 1.2177 h -2.1016 v -4.6536 z m 5.8005,4.6536 v 2.5228 l 6.0633,-1.2614 z m -170.2015,273.9393 1.1937,-0.074 0.1347,2.4571 2.3385,-0.2015 c -0.5031,-2.8815 -1.1735,-3.3239 0.8195,-5.1478 -1.3739,-1.555 -1.7555,-1.1602 -1.7492,-4.2596 0.005,-2.4106 0.5763,-3.2303 1.3019,-4.9881 -2.0372,0.5202 -1.8912,1.3025 -3.7652,1.6483 -1.2566,-5.752 -2.149,-12.2023 -3.2655,-17.9489 -3.3466,-17.227 -2.8423,-21.0283 -0.7336,-38.9645 0.3214,-2.732 0.4578,-6.3799 1.4473,-8.8192 1.7995,-4.4367 -0.4399,-5.9828 0.7762,-9.0368 1.9346,0.3013 1.8104,0.6171 2.8122,2.0146 0.1908,-2.0336 -1.5162,-4.1686 -2.3108,-6.1753 -1.478,-3.7327 0.1057,-4.2596 1.5834,-6.2294 -0.7185,-1.5409 -0.6845,-0.8204 -1.4765,-2.1515 -0.5874,-0.9873 -0.701,-1.7776 -0.6554,-3.2054 l 2.8814,-2.1558 c -12.6266,-2.4514 -1.6033,-5.7013 0.7977,-6.7813 -3.2488,-0.3351 -6.0438,-0.3648 -6.9917,-3.3007 1.2773,-1.8104 1.9364,-1.8306 4.1361,-1.8745 l 4.0614,-0.9346 -4.1317,-0.4717 c -8.5845,0.6344 -9.6959,-7.757 -14.4448,-18.176 -2.2238,-4.8773 -1.0282,-4.2239 -4.1766,-7.1921 -3.3965,-3.2023 -15.9792,-22.7953 -16.094,-28.1318 -0.6296,-0.6571 -0.0428,0.3923 -1.0091,-1.3485 l -9.0851,-20.4004 c -2.8366,-6.7646 -4.9906,-0.8642 -7.3822,-8.1671 -1.1707,-3.574 -1.2132,-2.325 -3.0158,-4.7413 -0.9584,-1.2841 -1.9395,-3.6093 -2.7879,-4.7412 l -0.665,-2.66 -0.3124,-1.1186 c -0.7976,-1.0309 -0.6446,-0.695 -0.8427,-2.4899 -0.1069,-0.9689 -0.1052,-2.2048 -0.1755,-3.2157 -0.1828,-2.6399 -0.8557,-3.852 1.4602,-5.0921 l 0.5972,-0.8943 c -5.5933,0.6896 -2.025,5.0023 -2.4386,12.2879 0.8518,0.8679 0.1814,0.0771 0.8606,1.3002 0.3469,0.6253 0.1672,0.5409 0.5737,1.0616 0.6749,0.8654 0.2843,0.3416 0.9425,0.8209 l 0.741,4.0915 c -0.8858,0.942 -2.0154,1.948 -3.3202,2.3905 -1.9602,3.1411 -4.6783,3.1 -5.4766,5.345 0.6755,0.6242 -0.9668,0.959 1.1645,0.3118 2.031,-1.3263 6.8845,-6.0341 8.9017,-6.4766 l 1.1497,2.0251 c -0.6741,2.1379 -5.0468,4.6219 -7.2723,6.7612 -1.0789,1.1619 -1.1486,1.008 -2.4211,1.8564 -1.8496,1.2339 -1.5837,-0.0173 -1.4278,2.6623 3.2939,-1.5965 9.0014,-7.8492 11.9486,-8.4799 2.1853,2.1558 1.0979,3.2273 4.8892,4.76 3.3642,1.3606 2.9339,2.008 4.3336,5.4816 3.9736,9.8606 4.1446,7.1841 0.0672,13.8416 -2.5078,4.0952 -14.6324,22.2673 -15.5205,24.8661 1.0547,1.3442 4.2338,4.4257 5.7294,5.1213 l 11.8516,-17.5436 c 0.866,-2.0843 3.6148,-6.3116 5.1055,-8.191 l 3.1116,8.191 c 1.0423,1.402 1.7623,4.3812 2.7323,6.1532 1.4706,2.6861 4.1788,2.6555 8.024,11.2053 0.7348,1.6331 -0.9314,3.9373 -1.6778,6.6175 -0.1369,0.4915 -0.305,1.1163 -0.4535,1.5899 l -4.0298,13.0751 c -1.2486,3.9564 -3.9673,11.577 -4.407,15.1815 l 7.0999,2.8452 c 1.6535,-2.4143 6.6898,-20.202 8.3957,-25.549 l 1.5477,-3.7528 c 2.113,5.4703 3.0603,10.4922 5.6594,16.0745 1.6917,3.6337 2.4375,3.4874 2.4766,8.2995 0.201,24.5277 7.4305,12.8974 3.0952,49.1114 -2.204,18.4076 0.517,31.5156 3.3743,49.0314 2.0146,12.3446 -1.3439,23.1889 -0.559,30.2111 -1.0961,1.7317 0.3135,0.4122 -0.9272,0.7401 -0.1003,0.0264 -1.5959,0 -1.7628,-0.0121 -14.8635,-1.124 -12.3719,0.0153 -20.0719,5.0947 -1.199,0.7908 -0.3753,0.3245 -1.2773,0.6086 -0.796,1.4278 -0.1114,0.602 -1.9485,2.2144 -0.3246,13.5068 0.2222,31.9311 0.4308,46.207 l 0.1344,11.404 c -6e-4,0.3997 -0.0232,1.7419 0.0264,2.0512 0.3311,2.0786 -0.0295,0.6712 0.6142,1.4811 1.5849,1.2033 16.3874,2.3593 19.6183,2.5444 2.0311,0.1168 14.2314,0.6539 15.7224,1.2841 1.2694,0.5366 1.8306,1.6968 3.2754,2.4933 2.613,1.44 5.8904,1.4015 8.0839,-0.7458 3.0495,-2.9851 3.6073,-2.4003 8.9353,-2.6246 5.9582,-0.2517 15.8661,-1.3178 21.3421,-0.9124 l 7.8803,-0.5809 c -0.6718,-4.3115 -0.1137,-12.6771 0.0159,-17.4293 0.1125,-4.1012 0.9102,-13.8311 0.1236,-17.0805 -0.5122,-5.0938 -0.1077,-11.8 -0.0581,-17.0745 0.0745,-7.9835 0.9992,-8.4175 -3.7823,-13.0223 -6.4539,-6.2156 -12.223,-7.3267 -22.1003,-5.4068 -2.1192,0.4118 -2.7646,0.1281 -2.6178,2.0273 4.9116,-0.8087 8.6462,-1.9193 13.9235,-1.1979 3.9172,0.5352 8.7661,3.1496 9.1083,6.5735 l 0.6349,26.3526 c 1.8116,-5.18 -0.0751,-19.62 0.705,-26.5022 0.6049,1.4966 1.9809,32.4116 1.4386,34.2274 l 0.5048,-31.7602 c 1.3031,3.2604 0.8351,15.533 0.7563,20.0909 l 0.4405,39.6569 -6.8828,0.5885 c -2.6045,-0.0504 -25.4956,-0.2174 -27.8042,0.3699 -0.7721,0.1962 -1.2384,0.4952 -1.489,0.5973 -1.1412,0.4643 -0.2251,0.286 -1.3893,0.4796 -0.5513,0.7098 0.3283,0.2041 -1.1069,1.1994 -0.0808,0.0555 -0.9853,0.4773 -1.0922,0.5091 -3.5538,1.0615 -5.4655,-1.0256 -7.5101,-2.1221 -5.3725,-2.8825 -31.1366,-0.4603 -35.9555,-3.3661 -0.7835,-5.9556 -1.1667,-56.9336 -0.1295,-59.8637 l 0.426,14.3104 c 0.7492,-2.9682 0.5244,-6.6855 0.5159,-9.9525 -0.0184,-7.0358 -0.4249,-4.5345 2.7743,-7.5191 0.9071,-2.4809 5.0431,-3.6913 8.4177,-4.0116 3.9864,-0.3782 9.4048,0.786 12.6111,-0.3782 -0.4521,7.42 8.9527,24.8678 8.1879,33.1237 -0.3515,3.7973 0.4133,6.285 -0.489,9.9816 -1.55,6.3556 -3.9067,11.6553 1.4536,15.8879 0.8311,0.6566 5.4533,3.6179 6.4857,3.89 5.521,1.4548 9.3503,-4.9816 11.0398,-9.104 2.999,-7.3208 -1.3822,-10.9392 -0.7362,-17.4319 0.5593,-5.6251 1.1481,-2.4701 -0.4992,-8.1618 -0.6406,-2.213 0.7121,-6.359 1.2096,-8.5913 1.2322,-5.5343 3.0433,-12.1742 3.7644,-17.6445 2.1118,-6.3346 1.3955,-13.4651 0.0238,-20.0957 -1.0083,-4.8767 0.2146,-5.7642 0.3762,-10.296 0.3954,-11.1007 8.5201,-16.7082 7.2966,-51.7853 -0.2837,-8.1323 -6.6869,-3.5651 1.6764,-40.2369 2.8815,-12.634 -0.7866,-10.3944 3.8294,-19.9772 1.5151,-3.1453 6.2937,-13.7749 7.9631,-15.6007 l 9.6686,31.0504 7.2465,-2.8837 c -1.7467,-6.1072 -3.5779,-11.9072 -5.43,-18.1531 -6.1518,-20.7464 -7.2403,-16.3593 -1.0996,-23.6579 6.8361,-8.1241 6.77,-14.8586 9.0791,-18.4068 0.574,-0.8813 0.2838,-0.4303 0.8654,-0.9901 0.8516,2.3851 13.5777,22.3137 15.0001,24.3691 1.4069,-0.6925 4.9142,-3.7502 5.9599,-5.0173 -0.7195,-1.8861 -2.9583,-5.2021 -4.1831,-7.0866 -1.9571,-3.0107 -11.2281,-19.137 -13.3447,-20.577 l -0.4144,-0.2812 c 2.5115,-6.5987 3.666,-10.6713 8.3322,-13.3455 2.5903,-1.485 3.2093,-0.9008 3.7045,-3.4656 l 2.3922,-1.745 c 1.4786,0.5729 9.8223,7.4698 10.8833,8.7233 0.4102,1.0386 -0.072,195.7969 -0.0756,218.3837 -0.004,21.5246 2.103,28.8343 -14.1395,45.3104 -2.8525,2.8933 -18.9587,14.2486 -24.8366,14.4632 -2.4333,2.649 -18.2931,6.1183 -23.1055,6.9091 -17.4654,2.8721 -36.4065,2.9753 -53.4467,-2.3343 -3.4869,-1.0862 -18.4734,-6.2705 -21.022,-9.7044 -5.1489,-0.8855 -16.3466,-12.7137 -19.8366,-17.7454 -6.5168,-9.3943 -7.7952,-16.8004 -7.7587,-30.6885 l 0.1211,-190.9565 c 0.003,-12.1303 0.7585,-26.6283 0.1216,-38.4193 l -0.1503,-2.7536 0.0958,-33.3108 15.5047,-4.845 c 1.5483,6.9325 5.1111,12.5164 7.528,18.1219 -1.5075,-0.8917 1.872,0.2141 -0.7317,-0.2035 -1.2401,-0.1993 -2.3289,-0.2812 -3.1447,0.2305 -2.1254,-0.3289 -0.6914,-0.1469 -2.2768,-1.2501 -0.1003,-0.0695 -0.2446,-0.1656 -0.3419,-0.2259 -0.1063,-0.0661 -0.314,-0.1364 -0.4056,-0.1871 -0.0972,-0.0539 -0.2934,-0.1168 -0.4425,-0.1695 l 0.176,0.9102 c 1.9667,1.4601 1.946,3.2218 3.1233,5.7498 0.4827,1.0366 1.7504,5.8994 1.358,6.6756 l 0.0641,3.8012 c 2.2666,-8.3222 1.3771,-4.0291 0.3308,-7.5498 -0.4124,-1.3861 -6e-4,-1.4363 -0.3779,-2.6538 -0.7993,-2.5781 -1.6863,-0.8112 -1.2075,-5.1006 2.6325,0.6448 0.7724,0.1037 2.4174,2.3159 0.7798,1.0494 1.1531,0.9975 2.0494,2.0866 1.9931,2.4222 4.4343,9.9592 4.2741,12.761 -0.2463,4.3055 -0.6593,1.8654 1.6143,5.7166 0.5862,-1.1849 -1.0233,-6.7312 -1.5329,-9.3997 -0.6069,-3.1742 -2.5988,-6.1611 -1.9259,-9.0541 1.402,2.1662 3.702,4.6545 5.4556,6.5797 2.2382,2.4585 3.5841,3.6375 6.2435,6.1869 -0.5023,1.6087 -3.9018,6.8803 -5.1788,8.1193 l -1.8494,-1.0012 c -0.0411,-0.1417 -0.1854,-0.1411 -0.2874,-0.1956 1.7048,2.8259 3.3789,5.3952 5.0267,8.2936 1.6055,2.8233 4.6196,6.2351 5.3164,8.411 1.2945,0.6307 3.5554,3.9339 4.1788,5.9014 0.9456,2.9846 0.5423,5.2393 3.4784,6.0846 l 1.4133,1.459 c 0.8893,0.7336 0.9975,0.7146 1.8117,1.2903 6.2452,4.4204 2.6274,5.7932 14.1514,15.3386 2.3587,1.9533 3.6374,3.4104 4.8829,7.0619 1.895,-0.0881 2.9656,0.019 4.3124,-0.7585 0.2321,-1.5341 -1.7068,0.0751 -0.8516,-3.8622 0.366,-1.6835 1.3014,-3.7517 1.7011,-5.0652 l 4.5853,1.2126 c -7.7961,-3.8868 -5.9386,-11.3527 -6.5327,-13.7378 -0.4456,-1.7873 -0.7818,-0.3986 -0.843,-3.8523 -0.0303,-1.6804 -0.3305,-4.0328 0.0728,-5.578 0.906,-3.4724 4.2591,-1.9168 2.761,-6.9086 4.2661,-1.0171 7.4353,-3.7193 14.506,1.0848 l -0.3662,1.027 c 0.4767,2.1036 -0.0324,0.7761 2.5801,3.0974 2.4006,2.1339 1.8983,8.051 -1.0562,10.7014 0.0561,0.1168 0.7211,1.4584 0.7217,1.4601 0.17,0.5837 0.1754,0.2684 0.1474,1.1254 -0.0355,1.0635 -0.4794,2.0406 -1.061,2.6892 0.006,4.1533 -3.9558,7.2601 -6.0452,9.4206 l 4.0116,-1.0573 c 5.2804,13.7401 -1.1089,9.0686 -5.2053,10.6804 -1.6784,1.3263 -0.9896,1.5435 -2.3726,2.7901 -1.6429,1.4811 -2.6013,0.4604 -4.2528,1.5617 5.8467,2.533 5.5871,0.0892 7.2374,-1.1974 2.1215,-1.6552 4.4955,0.2441 7.1005,-3.2094 2.4217,-3.2102 6.501,-10.7972 9.4862,-10.9823 0.4144,-0.4113 0.284,-0.3767 0.9654,-0.7854 0.6084,-0.3649 0.4984,-0.2126 1.109,-0.4896 2.3042,-1.0445 1.673,-0.8875 3.9826,-4.8073 2.1467,-3.6416 2.198,-3.7865 5.3604,-6.0258 4.2528,-3.0121 6.5026,-8.9612 9.216,-13.2605 l 4.7894,-5.3501 c 3.1337,-3.1459 6.116,-7.4359 8.5235,-11.132 4.3177,-6.6279 1.9173,-2.5758 4.5578,-4.8965 -1.0947,-1.9148 -2.3111,-3.1014 -1.8227,-6.2246 0.222,-1.4193 4.756,-12.4597 8.7795,-13.7628 1.7787,2.7626 -0.2872,2.7096 -1.0715,5.2364 -1.457,4.699 -1.2864,3.5107 -0.4932,4.8975 0.3693,-6.4863 4.5498,-9.912 7.1971,-13.5573 l -3.1459,3.5065 c -0.1865,-0.0377 -0.3832,-0.1234 -0.5434,-0.1755 l -1.0202,-0.349 c -2.0769,-0.5819 -1.2438,-0.3631 -3.0302,0.0718 l -3.3239,-1.9231 5.2673,-9.2568 c 0.0443,-1.6931 0.6157,-2.7201 1.2121,-3.3769 l 1.1895,-4.2574 15.1131,4.9247 -0.0907,30.7253 c -2.7272,-1.044 -3.8627,-3.195 -6.417,-4.597 -0.0698,-4.8379 2.8734,-7.018 2.4474,-11.0307 -0.0374,-0.3512 -1.4108,-4.6568 -1.5386,-4.9042 -0.9981,-1.9279 -2.7933,-1.6699 -5.0454,-1.0599 l -0.2897,0.0567 0.2137,0.8504 0.6131,-0.555 c 1.7757,0.7151 0.5341,0.71 3.4404,1.2676 1.0239,6.0131 1.9523,6.6416 -0.9141,12.4175 l -5.7498,9.0637 c -2.0004,2.602 -4.5536,2.6289 -6.9545,4.6293 -1.622,1.3521 -6.1524,12.4512 -7.4759,15.2836 -0.7818,1.6735 -2.4803,5.6134 -3.4942,6.9593 -0.0561,0.0745 -0.2495,0.3892 -0.2928,0.3019 -0.044,-0.0893 -0.2022,0.2041 -0.3082,0.3019 l -0.265,0.9309 -4.1803,8.57 c -0.7304,2.3697 -3.2405,6.2679 -5.411,7.5767 -0.5502,0.9034 -1.0066,1.3603 -1.6186,2.1906 -0.2897,0.3923 -0.6038,0.877 -0.9346,1.218 -0.7381,0.7617 -0.0652,0.1834 -1.0409,0.7971 l -0.4535,0.5182 c -1.1392,2.8894 -4.8867,5.7118 -5.449,7.2595 -0.207,0.5709 -0.8417,5.5834 -4.0003,7.9946 -0.1962,1.4451 -4.4901,9.0119 -5.8739,11.0486 -1.3329,1.9613 -1.8298,1.4485 -6.905,2.1934 1.4171,0.4958 3.9725,0.72 4.582,2.1144 1.089,2.4905 -1.6555,2.9679 -3.64,3.38 2.4083,1.2714 3.075,0.4473 4.6454,2.6385 -0.2806,2.3332 -1.1707,2.6816 -3.5872,3.1337 1.366,0.7722 2.4361,1.0208 3.1787,2.4988 -0.6936,1.8793 -1.5242,1.7549 -2.9165,2.9888 3.1062,1.978 2.8695,2.9747 1.7889,7.2184 -1.0891,-0.5703 -0.9462,-0.6485 -1.8391,-1.3532 0.894,10.1596 -1.0415,6.328 -0.3129,11.018 0.4986,3.2142 -0.6761,1.6801 -0.9896,4.9385 -0.1999,2.0817 -0.057,5.1979 0.195,7.2717 1.2671,1.7186 1.188,10.9273 1.9386,14.5446 2.3491,11.313 -1.3878,33.3346 -6.2484,44.2766 -1.9199,0.1417 -0.8558,0.2231 -2.5951,-0.5752 0.4657,4.4428 1.5928,5.9647 0.9295,10.9157 -1.107,8.263 0.3991,2.2926 0.2965,6.8706 -0.0221,0.9811 -0.305,1.654 -0.5465,2.63 2.2971,1.2183 -1.8165,-0.4071 0.8186,0.2452 0.4997,0.1241 0.6287,0.0243 1.1293,0.2744 3.7525,10.9751 -3.5974,27.8623 -5.0369,39.365 -0.341,2.7246 0.0539,2.7252 0.6608,4.9977 0.7106,2.6589 0.0641,2.4897 -0.076,4.8172 -0.3087,5.1299 4.5683,11.7003 -0.1709,19.5557 -0.9139,1.5154 -5.7407,4.4498 -6.918,4.5017 -0.9547,-3.7846 -0.2341,-108.7067 -0.1508,-123.4389 0.0318,-5.6203 1.4749,-7.691 5.7691,-13.2922 1.3504,-1.7604 3.5861,-3.536 4.5964,-5.3227 -3.3432,0.6211 -7.109,5.4352 -9.11,8.0048 -4.9462,0.1179 -3.7409,-0.3645 -6.0035,-3.3514 -1.2693,-1.6747 -4.1873,-3.8103 -6.1342,-4.2534 0.6724,2.0189 2.6901,3.9697 3.8532,5.5094 1.8666,2.4707 1.2021,3.8262 3.4667,5.8456 2.0965,1.8692 2.4449,2.9308 2.5152,6.8483 0.4811,26.8818 -0.0142,58.0229 -0.008,85.401 10e-4,7.0779 0.8521,33.3309 -0.3705,37.9449 -2.9497,-0.5811 -0.5091,0.0992 -2.3445,-1.141 -0.8705,-0.5882 -1.0457,-0.6193 -1.9718,-1.1063 -1.9528,-1.0281 -1.8289,-1.1112 -2.7266,-3.4767 -1.8581,-4.8977 -1.2286,-6.0387 0.2523,-10.868 1.6302,-5.315 0.001,-7.5632 0.8827,-11.0277 1.311,-5.1536 -5.9471,-23.8161 -7.4404,-29.8046 -3.259,-13.0745 0.4297,-14.1417 0.6777,-22.4501 z m 31.4955,-131.1715 c -0.9394,0.9609 -0.5709,-2.0084 -0.8189,1.7212 1.4933,-0.7793 0.6412,-0.0916 1.5891,-1.4633 0.6074,-0.6162 1.1557,-1.0879 1.7555,-1.7455 0.4124,-0.4519 0.5953,-0.8431 0.9337,-1.1308 0.7824,-0.6655 0.3552,-0.379 1.2458,-0.5465 0.5006,-0.6284 0.1766,-0.4187 0.8516,-0.9652 0.5156,-0.4187 -0.0321,-0.028 0.6488,-0.4204 1.8919,-1.0893 3.5813,-0.6173 2.9078,-3.0872 -0.7373,-0.25 0.9309,-0.3832 -1.1313,-0.2426 -1.1106,0.0751 -2.1419,0.9992 -3.3752,1.6129 -0.4726,1.1149 -1.6076,1.9315 -2.4194,2.9021 -0.9008,1.0763 -1.4698,2.031 -2.1875,3.3653 z m -17.3126,-32.5148 -0.1412,-3.5464 -2.2841,-0.2523 1.311,0.5853 -1.2543,2.8318 z m 6.3315,162.8972 c -4.3532,0.6834 -3.1,-1.4633 -4.4484,-3.6275 -0.5191,4.7437 2.605,6.6053 4.4484,3.6275 z m -41.3408,79.1135 c -0.7886,-0.4963 -0.2905,1.1565 -0.752,-1.6753 -0.053,-0.3294 -0.1245,-1.7243 -0.1417,-2.124 -0.245,-5.7209 -1.4443,-25.7873 -0.855,-28.4252 -1.3257,2.4465 -0.5128,13.7987 -0.4768,17.5646 l 0.1418,13.4773 c 0.0569,2.0849 -0.0306,1.8587 1.226,2.8409 1.1945,-0.8269 1.1749,1.3447 0.8577,-1.6583 z m 27.3935,-174.8937 c 0.2806,-1.6526 -0.3546,-0.5091 0.987,-1.9975 0.5026,-0.5568 1.3073,-1.251 1.9553,-1.6685 2.052,-1.3221 3.7659,-0.6741 4.3268,-2.4401 l -0.6808,-1.3396 c -5.7144,-0.2622 -9.4581,4.1227 -8.8731,10.2157 1.1044,-1.4743 0.6877,-1.754 2.2848,-2.77 z m 7.9707,183.5076 c 1.0545,-0.9876 4.231,-2.7039 5.6614,-3.6331 1.845,-1.1974 4.0382,-2.5969 6.1217,-3.6973 6.6617,-3.5175 14.7194,-0.6403 16.4576,-1.5573 -3.5694,0.7279 -8.4021,-3.1221 -17.0779,0.3838 -14.3195,5.7872 -9.0589,9.2234 -17.1099,3.0818 -7.3939,-5.6404 -9.7035,-4.7667 -16.9838,-5.6353 2.5733,2.3159 5.8182,-0.2072 12.5439,4.3824 4.1755,2.8499 7.4033,6.5137 10.387,6.675 z m -87.4247,-348.0729 173.7354,-0.2126 c 0.6449,25.509 0.019,51.6013 0.0899,77.1298 l 0.1046,192.5093 c -0.007,12.6882 -0.4468,26.1502 -0.241,38.6252 0.4916,9.2398 -7.1322,20.9738 -11.2212,25.558 -6.0296,6.7584 -11.514,11.1546 -20.7391,16.5053 -55.9296,32.4397 -141.2629,6.8389 -141.302,-53.7786 l -0.4187,-259.2661 c -0.007,-11.9786 -0.591,-25.2623 -0.008,-37.0703 z m 55.3428,97.0577 c -4.7957,-1.5239 -2.2023,-4.5768 -4.4357,-8.4563 -3.6436,-6.3278 -10.3045,-9.821 -7.0645,-14.8916 1.5055,-2.3564 3.2219,-5.3807 4.674,-7.4582 4.2296,2.5543 8.7911,5.8022 14.2254,7.4288 -1.341,4.0498 -5.8561,21.5177 -7.3992,23.3773 z m 75.3842,-33.5126 6.7303,10.7716 c -1.2206,1.6807 -0.775,1.9968 -2.5109,3.0042 -1.1486,-1.0185 -6.512,-9.8946 -7.2502,-11.8933 z m -91.7129,8.7148 c 0.8776,-2.7082 3.8908,-6.446 5.2588,-8.8157 1.6308,0.7109 1.8612,1.2568 3.4461,1.9669 -0.9065,2.005 -4.504,8.2834 -6.3488,9.5015 -1.6455,-0.7444 -1.6503,-1.1123 -2.3561,-2.6527 z m 122.9794,-12.7817 c 1.6985,1.5004 6.057,5.1616 7.7814,5.9465 l 0.0232,4.8898 c -2.0203,-0.7421 -3.7531,-2.4622 -5.2571,-3.7383 -1.4114,-1.1968 -3.6839,-2.7241 -4.5794,-4.1483 0.4328,-1.7977 0.9366,-2.1095 2.0319,-2.9497 z m -18.836,-8.8163 2.2646,1.7957 c -0.585,5.9777 -3.206,3.729 -2.7028,11.0107 0.2971,4.2936 -0.0476,3.8469 -2.4443,7.2873 -1.228,1.7617 0.1307,0.5967 -1.6149,1.7036 -2.3837,-1.4088 -5.224,-7.196 -7.2043,-9.5222 z m 3.1935,-4.6672 c 0.9976,0.8061 1.8868,1.4051 2.4925,2.8842 -0.96,1.0794 -1.2211,1.1945 -2.4216,2.1325 -1.6503,-0.6466 -0.915,-0.5145 -2.5486,-1.5865 z m -116.5271,0.511 c 0.7846,0.885 0.9643,1.522 1.4306,2.7553 -3.2326,-0.6443 -3.3715,-1.6985 -2.3037,-3.5132 0.381,0.3118 0.4116,0.2378 0.8731,0.7579 z m 26.7749,51.3366 7.0815,-23.6466 4.0657,1.4902 c -1.4675,4.424 -6.4995,22.0648 -8.263,24.6007 -1.8946,-0.9828 -2.1104,-0.6228 -2.8842,-2.4443 z m 11.6838,-21.8877 c 6.463,0.7911 12.3021,3.0274 19.6552,2.9786 3.2638,-0.0215 6.8204,-0.4339 9.8838,-0.9303 2.9296,-0.4748 6.5792,-2.0214 9.2336,-1.4638 l 1.4377,4.4501 0.5732,3.4033 c 0.0944,0.123 0.2117,0.28 0.271,0.3773 0.0572,0.0952 0.1882,0.2548 0.2543,0.3722 0.682,1.2242 4.1964,12.7712 4.7576,14.5499 0.8396,2.66 1.0304,3.4651 -1.203,4.3495 -0.3849,0.9266 -1.4706,2.1858 -2.391,3.4483 -0.5536,0.7586 -1.5489,2.3746 -2.4106,2.8948 -0.3716,0.769 -9.2361,8.4087 -9.5321,8.5907 -1.2634,-1.6149 -4.0101,-7.2258 -0.3157,-9.9287 -0.1109,-2.0987 1.9729,-11.6325 2.6452,-12.4662 0.6948,-4.9498 0.8955,-6.5718 -0.4345,-11.0662 -2.6266,-2.319 0.8929,-1.1888 -5.0023,-3.9801 -5.847,-0.8773 -14.9241,-2.5183 -17.3395,3.3996 -4.1913,10.2682 -1.9052,7.3395 -0.5355,17.8566 l 0.1899,2.2969 c 0.4377,0.6687 0.001,-0.4638 0.6696,1.2438 2.4636,6.2975 0.0207,10.1957 -1.1223,14.0429 -1.4309,-1.1761 -1.6772,-2.3803 -3.0818,-3.5952 -4.1692,-3.6068 -8.1133,-5.4003 -9.3334,-9.6653 -0.6993,-0.7115 -1.2041,-2.0676 -1.8691,-2.9407 -0.6492,-0.8523 -1.4956,-1.5168 -2.2646,-2.4154 0.0819,-2.4015 5.3592,-19.0389 5.9156,-20.048 z m 40.3002,0.4433 c 0.6789,-1.1511 0.0195,-0.8135 1.2577,-1.398 1.656,-0.7804 1.3119,-0.0848 1.8009,0.0221 1.5653,5.6469 4.5229,13.8875 6.5534,19.798 1.1449,3.3324 1.946,4.4907 -1.2696,6.0381 -0.0806,-0.1106 -0.1852,-0.2597 -0.2311,-0.3393 l -0.57,-1.0732 c -1.5557,-3.7094 -6.2175,-21.3248 -7.5413,-23.0477 z m 4.0207,-1.6894 c 0.5989,-0.7452 0.3072,-0.7923 2.0364,-1.6577 l 12.1963,-6.5449 c 8.2213,16.556 10.2317,7.7042 0.1675,21.357 -1.8893,2.4866 -4.333,7.2151 -6.4564,9.1171 -1.4131,-1.4717 -4.8189,-13.6981 -5.9514,-17.2327 -0.3124,-0.9737 -0.525,-1.7027 -0.8631,-2.7408 -0.4388,-1.3453 -0.275,-1.5511 -1.1293,-2.298 z m 42.8694,-47.9415 c 0.3062,-1.9534 0.459,-2.8508 1.2977,-4.0536 l 12.9118,4.5457 -0.0887,3.4996 c -2.9948,0.3736 -10.618,-3.1915 -14.1208,-3.9917 z m -135.6261,-4.3654 0.7843,3.5 -14.9494,4.5181 0.0332,-3.9351 z m 138.6241,-7.1249 0.1278,-3.5665 0.3869,-5.614 10.7646,0.0105 c 0.2557,3.0897 0.0907,6.6052 0.0777,9.7463 -0.0397,9.6642 0.7035,10.4414 -3.4251,9.0357 -2.4058,-0.8197 -7.1771,-2.6679 -9.4337,-3.0146 -0.0182,-3.1723 1.2801,-6.1957 1.2843,-6.2294 0.0287,-0.2109 0.1369,-0.2506 0.2175,-0.368 z m -146.6006,8.2851 -6.1035,1.5041 0.0275,-18.9782 11.7989,0.003 0.434,5.6194 1.3955,9.4544 z m -7.9554,-19.6256 c -0.4377,18.2676 -0.0368,37.0618 -0.0306,55.3867 l 0.0281,220.9708 c 0,18.968 -2.3721,33.7632 7.018,48.0339 30.8738,46.9219 124.7397,41.6716 154.22,0.1968 8.7044,-12.2457 6.2252,-32.0766 6.2263,-49.2653 l 0.0513,-220.4538 c 0.0233,-18.0737 0.5006,-36.9012 -0.036,-54.8992 l -14.0218,0.0972 c -1.2646,27.5843 -16.0084,54.7345 -40.4388,66.7072 -19.3683,9.4921 -38.4114,8.6922 -57.8101,-0.1596 -16.2584,-7.4188 -27.6332,-21.3052 -33.9233,-37.4896 -3.5186,-9.0539 -5.1678,-18.6928 -5.9751,-29.1515 z m -8.2338,43.1433 -0.0924,5.1287 c 0.7316,10.5956 0.1828,23.2098 0.1913,34.0242 l 0.2404,204.9288 c -0.008,11.5815 0.5208,19.8847 4.5321,29.4083 11.8247,28.0695 47.857,49.1448 87.9103,48.1589 22.8863,-0.5635 42.7895,-6.8479 59.3356,-17.2015 1.9871,-1.2432 3.4943,-2.2393 5.2523,-3.5481 5.5554,-4.1343 8.8515,-7.2587 13.148,-12.1907 2.4783,-2.846 1.6659,-1.9034 3.7913,-5.0241 1.3771,-2.0208 5.809,-10.8675 5.8113,-10.8706 1.5806,-7.3046 2.6955,-9.845 2.6943,-18.3818 -0.0127,-74.5526 0.4573,-150.2887 -0.047,-224.5944 -0.0924,-13.6134 -0.003,-27.2633 -0.0116,-40.8818 -0.008,-12.7023 0.8685,-28.7753 -0.1534,-41.0669 l -182.3287,0.2945 c -0.9748,4.8359 -0.297,20.0132 -0.3325,25.7652 -0.0524,8.6709 0.1321,17.3886 0.0587,26.0513 z m 80.1099,14.7347 -4.8738,-3.5829 c -1.8607,-1.5305 -2.962,-2.6215 -4.4442,-4.3439 -2.3703,-2.7555 -4.6729,-7.5418 -5.0842,-12.6578 -0.4139,-5.142 0.7384,-10.9981 2.5183,-15.262 2.6776,-6.4174 5.9043,-7.3653 7.9727,-9.6066 l -2.0446,-0.019 c -4.858,0.6247 -6.7283,2.8874 -12.1981,1.8601 -4.2228,-0.7934 -7.0608,2.0132 -11.4015,2.5339 2.0084,0.3362 6.6402,1.4524 7.956,1.2838 2.7303,-0.3498 6.1135,-1.5477 6.4624,2.1135 -0.9051,0.5465 -6.2056,1.5591 -7.3601,1.5568 -4.479,-0.008 -3.6845,-0.093 -7.3517,1.3788 4.7889,0.1108 2.9271,0.2395 6.2019,1.3118 1.662,0.544 4.0462,0.218 5.9375,0.756 0.542,2.7505 -0.7648,3.6905 -3.7681,2.7658 -3.2287,-0.9938 -3.6468,-0.1621 -6.5305,0.4759 1.23,0.7733 1.8993,0.7129 2.9665,1.0551 1.2064,0.3869 1.3983,0.7018 2.4953,1.0661 5.008,1.6625 3.9303,-0.5006 4.0709,2.5798 -2.4894,0.3736 -2.9566,-0.2463 -5.1066,-0.195 -1.5857,0.0385 -2.8021,0.8183 -3.917,0.9176 3.4192,0.2602 8.3078,0.6406 9.347,4.0552 -2.8117,-0.0916 -3.511,-0.6134 -6.4088,-0.007 1.5789,1.1943 2.4168,0.4615 3.8758,1.6637 0.701,0.5788 1.7138,2.558 2.3592,3.344 5.3808,6.5514 9.3328,12.498 18.3257,14.9564 z M 336.77846,62.7109 c 0.6216,4.8027 0.1485,144.3988 0.148,148.9011 -0.001,49.6791 0.0297,99.36 -0.0196,149.0391 -0.0147,14.8238 0.8221,62.2738 -0.9742,73.5063 -4.7333,29.5858 -23.3394,51.1203 -45.1905,66.6618 -48.6505,34.6034 -122.5202,34.0807 -171.254,0.1111 -5.5296,-3.8542 -10.5996,-8.0509 -15.1716,-12.7663 -1.4505,-1.4959 -3.424,-3.0306 -4.706401,-4.6058 -5.2594,-6.4599 -10.7353,-12.9753 -15.2351,-22.0342 -11.7598,-23.6761 -9.9127,-39.1278 -9.9501,-64.6478 l -0.0567,-260.301 c -0.0116,-9.4147 -0.6534,-69.798 0.2713,-73.7881 z m -180.3246,459.1303 c 3.7262,0.3382 8.663,2.4101 12.8002,3.2562 4.3789,0.896 8.6391,1.7515 13.1505,2.3941 10.5783,1.5067 19.4402,1.3428 30.0645,1.522 35.6029,-0.4488 73.0808,-16.4651 98.0172,-41.5642 14.4805,-14.5751 25.7616,-33.6634 28.347,-55.5179 1.319,-11.1456 0.6163,-25.0937 0.6163,-36.6078 l 0.0354,-260.8185 c 0,-6.0248 0.4368,-70.1887 -0.1664,-74.3548 L 72.132259,60.245 c -1.0585,3.8177 -0.3251,28.0023 -0.3251,33.8953 l 0.0623,307.3932 c 6e-4,22.8234 -0.2052,40.627 9.2447,59.1165 16.1997,31.6939 42.013401,49.7407 75.339701,61.1912 z m 86.2351,-290.5579 c 0.0836,0.091 0.2114,0.1125 0.2401,0.2843 0.0289,0.1703 0.1896,0.2242 0.2267,0.2919 l 1.0619,3.068 c 1.8899,6.626 8.0203,24.6923 8.5087,28.9729 l -2.7694,0.9692 c -1.2538,-1.7028 -6.6263,-20.7372 -8.1164,-25.5067 -1.0965,-3.5082 -2.7151,-6.6377 0.8484,-8.0796 z m 22.9223,-19.8267 c -7.4077,-11.4145 -6.6951,-8.2227 -4.4166,-13.9291 0.4651,0.4084 0.4286,0.3271 0.8937,0.8625 l 1.4553,2.1986 c 2.7485,4.6312 12.7469,19.8609 13.4107,22.4782 l -2.2339,1.8776 c -1.7317,-1.6106 -7.3267,-10.7421 -9.1092,-13.4878 z m -133.2,12.0575 c 0.2481,-2.6465 16.4061,-26.6967 17.2883,-27.3476 1.9638,4.9825 2.1478,2.5169 -2.742,10.2609 l -10.1775,15.7096 c -1.006,1.5928 -1.0097,1.8417 -2.2479,3.0348 -1.5225,-0.766 -0.75,-0.2892 -2.1209,-1.6577 z M 265.70856,118.703 c 1.1724,7.6953 -2.1093,19.5279 -4.756,25.7848 -2.6833,6.3471 -4.9955,9.4709 -8.8376,14.4462 -1.2121,1.5696 -2.141,2.3655 -3.4772,3.7664 -29.8024,31.237 -81.9905,20.9078 -98.5386,-18.4178 -2.3697,-5.631 -6.3054,-18.7498 -4.5156,-25.566 z m -124.0679,-2.9673 c -1.1889,13.5647 4.2876,29.2108 10.104,38.2927 35.019,54.6814 113.2042,30.2797 117.5658,-30.9558 0.6101,-8.5617 0.1798,-7.5092 -4.3568,-7.4678 -32.5338,0.2948 -66.1533,-0.0499 -98.854,-0.0462 -5.8419,0 -19.5571,-0.7056 -24.459,0.1771 z m 44.0841,126.2818 c -0.7061,-2.4851 -3.3129,-4.6196 -6.8346,-4.7242 0.6556,3.5016 1.2614,1.1973 5.0252,3.6056 l 1.8094,1.1186 0.9828,1.7476 c -0.5006,-2.448 -0.4598,-1.3442 -0.9828,-1.7476 z m 24.0267,-26.4249 c -0.0969,-0.7089 -0.2749,-0.2891 0.1225,-1.3903 0.413,-6.1674 -0.8589,-3.5116 3.3035,-5.1778 -1.3544,-0.9743 -3.4767,-0.0984 -1.9273,-3.2315 -3.4197,0.1891 -3.3627,0.5459 -2.7527,8.4855 l -1.2935,1.3859 z m -3.2808,56.2689 c 2.3947,-0.1885 4.0039,0.5556 5.5069,2.0262 1.3765,1.347 2.6838,2.9452 3.0982,4.4025 0.3493,-0.5567 0.5607,0.8527 0.4054,-1.698 -0.2642,-4.3531 -4.8586,-8.3358 -8.9249,-6.8351 z m -0.5264,-52.865 2.5807,0.398 0.7279,-1.0426 -3.8239,-0.0363 c -0.7424,0.8575 -0.671,0.0893 0.5153,0.6809 z m -68.3915,-65.0787 c -0.462,-2.0114 -0.8305,-2.8783 -3.0169,-3.3927 0.9173,1.4808 1.5574,2.4375 3.0169,3.3927 z"
     style="fill:#1b1918;fill-rule:evenodd"
     id="path12" />
</svg>
